<?xml version="1.0" encoding="UTF-8"?>
<!DOCTYPE svg PUBLIC "-//W3C//DTD SVG 1.1//EN" "http://www.w3.org/Graphics/SVG/1.1/DTD/svg11.dtd">
<!-- Creator: CorelDRAW 2020 (64 Bit) -->
<svg xmlns="http://www.w3.org/2000/svg" xml:space="preserve" width="297mm" height="92.745mm" version="1.1" style="shape-rendering:geometricPrecision; text-rendering:geometricPrecision; image-rendering:optimizeQuality; fill-rule:evenodd; clip-rule:evenodd"
viewBox="0 0 29700 9274.5"
 xmlns:xlink="http://www.w3.org/1999/xlink"
 xmlns:xodm="http://www.corel.com/coreldraw/odm/2003">
 <defs>
  <style type="text/css">
   <![CDATA[
    .fil1 {fill:none;fill-rule:nonzero}
    .fil3 {fill:black}
    .fil0 {fill:#E50019}
    .fil2 {fill:white}
   ]]>
  </style>
 </defs>
 <g id="Camada_x0020_1">
  <metadata id="CorelCorpID_0Corel-Layer"/>
  <g id="_2207765697488">
   <polygon class="fil0" points="-0.53,4121.45 29699.47,4121.45 29699.47,9281.62 -0.53,9281.62 "/>
   <path class="fil1" d="M5032.99 64.84l-1193.25 0c-118.12,0 -213.44,93.95 -213.44,208.04l0 2892.38c0,118.12 95.32,213.42 213.44,213.42l644.26 0c114.11,0 208.06,-95.3 208.06,-213.42l0 -685.84 340.93 0c833.53,0 1397.27,-365.07 1397.27,-1189.17 0,-766.39 -483.22,-1225.41 -1397.27,-1225.41zm0 1523.36l-340.93 0 0 -590.54 340.93 0c217.45,0 322.14,122.13 322.14,292.59 0,175.82 -104.69,297.95 -322.14,297.95z"/>
   <path class="fil1" d="M7637.26 2402.9l0 -2130.02c0,-114.09 -89.92,-208.04 -208.04,-208.04l-644.26 0c-114.1,0 -208.06,93.95 -208.06,208.04l0 2892.38c0,118.12 93.96,213.42 208.06,213.42l1880.49 0c118.12,0 208.03,-95.3 208.03,-213.42l0 -554.32c0,-112.74 -89.91,-208.04 -208.03,-208.04l-1028.19 0z"/>
   <path class="fil1" d="M11307.42 3378.68l753.01 0c112.74,0 193.28,-114.09 155.69,-222.81l-975.82 -2920.56c-32.19,-100.68 -131.53,-170.47 -240.25,-170.47l-928.83 0c-108.71,0 -204.03,69.79 -241.62,170.47l-975.8 2920.56c-37.59,108.72 48.31,222.81 161.07,222.81l748.98 0c93.95,0 179.88,-61.74 202.68,-155.69l100.68 -355.68 936.87 0 99.34 355.68c28.18,93.95 108.7,155.69 204,155.69zm-1037.56 -1249.56l265.78 -961 264.42 961 -530.2 0z"/>
   <path class="fil1" d="M14342.88 272.88l0 1467 -971.78 -1556.92c-46.99,-76.51 -127.51,-118.12 -212.1,-118.12l-610.72 0c-119.44,0 -209.38,93.95 -209.38,208.04l0 2892.38c0,118.12 89.94,213.42 209.38,213.42l642.96 0c119.44,0 213.39,-95.3 213.39,-213.42l0 -1462.97 966.43 1558.27c46.96,71.13 127.51,118.12 213.42,118.12l610.72 0c118.12,0 212.07,-95.3 212.07,-213.42l0 -2892.38c0,-114.09 -93.95,-208.04 -212.07,-208.04l-644.26 0c-118.14,0 -208.06,93.95 -208.06,208.04z"/>
   <path class="fil1" d="M17320.77 7.14c-994.58,0 -1747.59,739.53 -1747.59,1713.96 0,981.13 753.01,1719.31 1747.59,1719.31 994.61,0 1747.62,-738.18 1747.62,-1719.31 0,-974.43 -753.01,-1713.96 -1747.62,-1713.96zm0 2395.76c-393.27,0 -681.86,-279.16 -681.86,-681.8 0,-397.29 288.59,-681.83 681.86,-681.83 393.3,0 681.86,284.54 681.86,681.83 0,402.64 -288.56,681.8 -681.86,681.8z"/>
   <path class="fil1" d="M21644.33 64.84l-1112.72 0c-114.08,0 -209.41,93.95 -209.41,208.04l0 2892.38c0,118.12 95.33,213.42 209.41,213.42l1112.72 0c1103.34,0 1808.01,-653.63 1808.01,-1657.58 0,-1007.99 -704.67,-1656.26 -1808.01,-1656.26zm0 2338.06l-256.37 0 0 -1363.63 256.37 0c487.23,0 743.62,284.54 743.62,681.83 0,398.6 -256.39,681.8 -743.62,681.8z"/>
   <path class="fil1" d="M24688.34 2488.81l0 -398.63 867.1 0c118.14,0 212.09,-93.95 212.09,-212.05l0 -346.28c0,-114.08 -93.95,-208.04 -212.09,-208.04l-867.1 0 0 -369.1 1018.8 0c112.74,0 208.04,-95.3 208.04,-208.04l0 -473.79c0,-114.09 -95.3,-208.04 -208.04,-208.04l-1871.09 0c-118.14,0 -213.44,93.95 -213.44,208.04l0 2892.38c0,118.12 95.3,213.42 213.44,213.42l1912.7 0c119.44,0 213.42,-95.3 213.42,-213.42l0 -468.42c0,-114.08 -93.98,-208.03 -213.42,-208.03l-1060.41 0z"/>
   <path class="fil1" d="M2824.05 4971.9l-1193.27 0c-118.12,0 -213.42,93.95 -213.42,208.03l0 2892.39c0,118.12 95.3,213.41 213.42,213.41l644.29 0c114.08,0 208.03,-95.29 208.03,-213.41l0 -685.84 340.95 0c833.54,0 1397.28,-365.07 1397.28,-1189.17 0,-766.39 -483.22,-1225.41 -1397.28,-1225.41zm0 1523.36l-340.95 0 0 -590.54 340.95 0c217.43,0 322.15,122.13 322.15,292.59 0,175.82 -104.72,297.95 -322.15,297.95z"/>
   <path class="fil1" d="M6375.92 8285.73l809.37 0c95.29,0 155.69,-104.69 108.72,-189.24l-595.95 -1046.91c297.95,-179.83 468.44,-468.41 468.44,-889.86 0,-766.37 -483.21,-1187.82 -1401.31,-1187.82l-1189.23 0c-118.12,0 -213.44,93.95 -213.44,208.03l0 2892.39c0,118.12 95.32,213.41 213.44,213.41l644.26 0c114.1,0 208.06,-95.29 208.06,-213.41l0 -814.7 297.97 0 460.39 910c32.24,71.13 108.73,118.11 189.28,118.11zm-947.64 -2381.01l336.91 0c221.47,0 326.16,79.18 326.16,255 0,170.46 -104.69,250.98 -326.16,250.98l-336.91 0 0 -505.98z"/>
   <path class="fil1" d="M8979.94 4914.2c-994.58,0 -1747.59,739.53 -1747.59,1713.96 0,981.12 753.01,1719.31 1747.59,1719.31 994.61,0 1747.62,-738.19 1747.62,-1719.31 0,-974.43 -753.01,-1713.96 -1747.62,-1713.96zm0 2395.76c-393.27,0 -681.85,-279.16 -681.85,-681.8 0,-397.29 288.58,-681.83 681.85,-681.83 393.3,0 681.86,284.54 681.86,681.83 0,402.64 -288.56,681.8 -681.86,681.8z"/>
   <path class="fil1" d="M12298.98 4971.9l-1193.24 0c-118.15,0 -213.45,93.95 -213.45,208.03l0 2892.39c0,118.12 95.3,213.41 213.45,213.41l644.26 0c114.08,0 208.06,-95.29 208.06,-213.41l0 -685.84 340.92 0c833.54,0 1397.28,-365.07 1397.28,-1189.17 0,-766.39 -483.22,-1225.41 -1397.28,-1225.41zm0 1523.36l-340.92 0 0 -590.54 340.92 0c217.46,0 322.15,122.13 322.15,292.59 0,175.82 -104.69,297.95 -322.15,297.95z"/>
   <path class="fil1" d="M15466.99 4914.2c-994.58,0 -1747.56,739.53 -1747.56,1713.96 0,981.12 752.98,1719.31 1747.56,1719.31 994.63,0 1747.62,-738.19 1747.62,-1719.31 0,-974.43 -752.99,-1713.96 -1747.62,-1713.96zm0 2395.76c-393.25,0 -681.83,-279.16 -681.83,-681.8 0,-397.29 288.58,-681.83 681.83,-681.83 393.3,0 681.88,284.54 681.88,681.83 0,402.64 -288.58,681.8 -681.88,681.8z"/>
   <path class="fil1" d="M18766.92 6212.06c-255.02,-71.13 -501.99,-89.91 -501.99,-246.95 0,-112.74 99.33,-193.26 289.92,-193.26 136.91,0 240.25,52.35 301.99,132.87 38.94,56.35 108.75,75.17 170.49,60.39l578.51 -140.91c99.31,-24.17 151.65,-128.86 112.74,-228.2 -179.86,-453.64 -652.33,-685.84 -1169.08,-685.84 -734.23,0 -1302,430.85 -1302,1079.12 0,681.83 440.26,895.22 1046.95,1041.52 335.57,80.52 539.59,89.91 539.59,256.37 0,122.13 -142.28,198.64 -327.5,198.64 -189.27,0 -363.75,-76.51 -440.26,-185.24 -42.95,-61.74 -118.14,-89.92 -189.27,-65.75l-577.17 174.48c-95.27,33.56 -142.26,132.87 -104.69,228.16 208.06,524.8 799.98,704.66 1363.74,704.66 904.66,0 1335.53,-520.79 1335.53,-1112.68 0,-558.33 -316.78,-794.57 -1127.5,-1017.38z"/>
   <path class="fil1" d="M22248.16 4971.9l-2193.26 0c-118.1,0 -212.05,93.95 -212.05,208.03l0 554.32c0,118.12 93.95,212.08 212.05,212.08l563.78 0 0 2125.99c0,118.12 95.28,213.41 208.04,213.41l644.26 0c118.14,0 213.44,-95.29 213.44,-213.41l0 -2125.99 563.74 0c112.74,0 208.06,-93.96 208.06,-212.08l0 -554.32c0,-114.08 -95.32,-208.03 -208.06,-208.03z"/>
   <path class="fil1" d="M24662.83 8285.73l752.99 0c112.76,0 193.28,-114.08 155.71,-222.8l-975.82 -2920.57c-32.19,-100.68 -131.54,-170.46 -240.27,-170.46l-928.83 0c-108.7,0 -204,69.78 -241.6,170.46l-975.82 2920.57c-37.59,108.72 48.34,222.8 161.07,222.8l748.98 0c93.98,0 179.88,-61.73 202.68,-155.69l100.68 -355.67 936.87 0 99.34 355.67c28.18,93.96 108.72,155.69 204.02,155.69zm-1037.56 -1249.55l265.77 -961 264.44 961 -530.21 0z"/>
   <path class="fil1" d="M27129.15 6212.06c-255.02,-71.13 -502,-89.91 -502,-246.95 0,-112.74 99.34,-193.26 289.93,-193.26 136.91,0 240.25,52.35 301.99,132.87 38.94,56.35 108.75,75.17 170.49,60.39l578.51 -140.91c99.31,-24.17 151.65,-128.86 112.74,-228.2 -179.86,-453.64 -652.33,-685.84 -1169.08,-685.84 -734.23,0 -1302,430.85 -1302,1079.12 0,681.83 440.26,895.22 1046.95,1041.52 335.57,80.52 539.59,89.91 539.59,256.37 0,122.13 -142.28,198.64 -327.5,198.64 -189.27,0 -363.75,-76.51 -440.26,-185.24 -42.95,-61.74 -118.14,-89.92 -189.27,-65.75l-577.17 174.48c-95.27,33.56 -142.26,132.87 -104.69,228.16 208.06,524.8 799.98,704.66 1363.74,704.66 904.66,0 1335.53,-520.79 1335.53,-1112.68 0,-558.33 -316.78,-794.57 -1127.5,-1017.38z"/>
   <path class="fil2" d="M2831.04 4966.65l-1195.55 0c-125.85,0 -209.74,103.8 -209.74,207.59l0 2891.48c0,118.63 83.89,222.42 209.74,222.42l629.24 0c125.85,0 209.74,-103.79 209.74,-222.42l0 -682.09 356.57 0c818.01,0 1384.32,-355.88 1384.32,-1186.25 0,-771.06 -482.41,-1230.73 -1384.32,-1230.73zm0 1527.29l-356.57 0 0 -593.12 356.57 0c209.75,0 314.62,118.62 314.62,296.56 0,177.94 -104.87,296.56 -314.62,296.56zm3544.71 1794.2l818 0c83.9,0 146.83,-103.79 104.88,-192.76l-608.27 -1052.8c314.62,-177.93 482.42,-459.67 482.42,-889.68 0,-756.24 -482.42,-1186.25 -1405.3,-1186.25l-1195.55 0c-104.87,0 -209.74,103.8 -209.74,207.59l0 2891.48c0,118.63 104.87,222.42 209.74,222.42l650.21 0c104.88,0 209.75,-103.79 209.75,-222.42l0 -800.72 293.64 0 461.44 904.52c41.95,74.14 104.88,118.62 188.78,118.62zm-943.86 -2387.32l335.59 0c209.75,0 314.62,88.97 314.62,252.08 0,177.93 -104.87,252.07 -314.62,252.07l-335.59 0 0 -504.15zm3544.7 -993.48c-985.8,0 -1740.89,741.4 -1740.89,1720.06 0,978.65 755.09,1720.05 1740.89,1720.05 1006.78,0 1740.89,-741.4 1740.89,-1720.05 0,-978.66 -734.11,-1720.06 -1740.89,-1720.06zm0 2402.15c-398.51,0 -671.18,-281.74 -671.18,-682.09 0,-400.36 272.67,-682.1 671.18,-682.1 398.52,0 692.16,281.74 692.16,682.1 0,400.35 -293.64,682.09 -692.16,682.09zm3313.99 -2342.84l-1174.58 0c-125.85,0 -230.72,103.8 -230.72,207.59l0 2891.48c0,118.63 104.87,222.42 230.72,222.42l629.24 0c125.84,0 209.74,-103.79 209.74,-222.42l0 -682.09 335.6 0c838.98,0 1405.29,-355.88 1405.29,-1186.25 0,-771.06 -482.41,-1230.73 -1405.29,-1230.73zm0 1527.29l-335.6 0 0 -593.12 335.6 0c230.72,0 335.59,118.62 335.59,296.56 0,177.94 -104.87,296.56 -335.59,296.56zm3167.16 -1586.6c-985.81,0 -1740.89,741.4 -1740.89,1720.06 0,978.65 755.08,1720.05 1740.89,1720.05 1006.78,0 1761.86,-741.4 1761.86,-1720.05 0,-978.66 -755.08,-1720.06 -1761.86,-1720.06zm0 2402.15c-377.55,0 -671.19,-281.74 -671.19,-682.09 0,-400.36 293.64,-682.1 671.19,-682.1 398.51,0 692.16,281.74 692.16,682.1 0,400.35 -293.65,682.09 -692.16,682.09zm3313.98 -1097.28c-251.7,-74.14 -503.39,-88.97 -503.39,-252.08 0,-103.8 104.87,-192.76 293.64,-192.76 125.85,0 230.72,59.31 293.65,133.45 41.95,59.31 104.87,74.14 167.79,59.31l587.29 -133.45c104.87,-29.66 146.82,-133.45 104.87,-237.25 -167.79,-444.84 -650.21,-682.09 -1174.57,-682.09 -734.11,0 -1300.43,430.01 -1300.43,1082.45 0,682.09 440.47,889.68 1048.73,1037.96 335.6,88.97 545.34,88.97 545.34,252.08 0,133.45 -146.82,207.6 -335.59,207.6 -188.77,0 -356.57,-74.15 -440.47,-192.77 -41.95,-59.31 -104.87,-88.97 -188.77,-59.31l-566.31 177.93c-104.87,29.66 -146.82,133.46 -104.87,222.43 209.74,533.81 797.03,711.74 1363.34,711.74 901.91,0 1342.38,-518.98 1342.38,-1112.1 0,-563.47 -335.6,-800.72 -1132.63,-1023.14zm3481.78 -1245.56l-2202.33 0c-104.88,0 -209.75,103.8 -209.75,207.59l0 563.47c0,118.62 104.87,207.59 209.75,207.59l566.31 0 0 2120.42c0,118.63 104.87,222.42 209.75,222.42l650.21 0c104.87,0 209.74,-103.79 209.74,-222.42l0 -2120.42 566.32 0c104.87,0 209.74,-88.97 209.74,-207.59l0 -563.47c0,-103.79 -104.87,-207.59 -209.74,-207.59zm2412.07 3321.49l755.09 0c104.87,0 188.77,-118.62 146.82,-222.42l-964.83 -2921.13c-41.95,-103.8 -146.82,-177.94 -251.7,-177.94l-922.88 0c-104.87,0 -209.74,74.14 -251.69,177.94l-964.83 2921.13c-41.95,103.8 41.95,222.42 167.8,222.42l734.11 0c104.87,0 188.77,-59.31 209.74,-163.11l104.87 -355.87 922.88 0 104.88 355.87c20.97,103.8 104.87,163.11 209.74,163.11zm-1048.73 -1245.56l272.67 -963.82 272.67 963.82 -545.34 0zm3502.76 -830.37c-251.7,-74.14 -482.42,-88.97 -482.42,-252.08 0,-103.8 83.9,-192.76 272.67,-192.76 146.82,0 251.7,59.31 314.62,133.45 41.95,59.31 104.87,74.14 167.8,59.31l566.31 -133.45c104.87,-29.66 167.8,-133.45 125.85,-237.25 -188.77,-444.84 -650.21,-682.09 -1174.58,-682.09 -734.11,0 -1300.42,430.01 -1300.42,1082.45 0,682.09 440.47,889.68 1048.73,1037.96 335.59,88.97 545.34,88.97 545.34,252.08 0,133.45 -146.83,207.6 -335.6,207.6 -188.77,0 -356.56,-74.15 -440.46,-192.77 -41.95,-59.31 -125.85,-88.97 -188.77,-59.31l-566.32 177.93c-104.87,29.66 -146.82,133.46 -104.87,222.43 188.77,533.81 797.03,711.74 1363.35,711.74 901.9,0 1321.4,-518.98 1321.4,-1112.1 0,-563.47 -314.62,-800.72 -1132.63,-1023.14z"/>
   <path class="fil3" d="M5033.37 58.55l-1195.55 0c-125.85,0 -209.74,103.8 -209.74,207.59l0 2906.31c0,103.8 83.89,207.59 209.74,207.59l650.21 0c104.88,0 209.75,-103.79 209.75,-207.59l0 -696.92 335.59 0c838.99,0 1405.3,-355.88 1405.3,-1186.25 0,-771.06 -482.42,-1230.73 -1405.3,-1230.73zm0 1527.29l-335.59 0 0 -593.12 335.59 0c209.75,0 314.62,133.45 314.62,296.56 0,177.94 -104.87,296.56 -314.62,296.56zm2600.85 815.55l0 -2135.25c0,-103.79 -83.9,-207.59 -209.75,-207.59l-629.23 0c-125.85,0 -209.75,103.8 -209.75,207.59l0 2906.31c0,103.8 83.9,207.59 209.75,207.59l1866.73 0c125.85,0 209.75,-103.79 209.75,-207.59l0 -563.47c0,-103.8 -83.9,-207.59 -209.75,-207.59l-1027.75 0zm3670.55 978.65l755.08 0c104.88,0 188.78,-118.62 146.83,-222.42l-964.83 -2921.13c-41.95,-103.8 -125.85,-177.94 -251.7,-177.94l-922.88 0c-104.87,0 -209.75,74.14 -230.72,177.94l-985.8 2921.13c-41.95,103.8 41.94,222.42 167.79,222.42l755.09 0c83.89,0 167.79,-59.31 188.77,-163.11l104.87 -355.87 943.86 0 83.89 355.87c41.95,103.8 125.85,163.11 209.75,163.11zm-1027.75 -1245.56l251.69 -963.82 272.67 963.82 -524.36 0zm4069.06 -1868.34l0 1467.98 -964.83 -1556.95c-62.92,-74.14 -146.82,-118.62 -230.72,-118.62l-608.26 0c-104.87,0 -209.75,103.8 -209.75,207.59l0 2906.31c0,103.8 104.88,207.59 209.75,207.59l650.21 0c125.85,0 209.75,-103.79 209.75,-207.59l0 -1467.98 964.83 1556.95c41.95,74.14 125.85,118.62 209.74,118.62l608.27 0c125.84,0 230.72,-103.79 230.72,-207.59l0 -2906.31c0,-103.79 -104.88,-207.59 -230.72,-207.59l-629.24 0c-125.85,0 -209.75,103.8 -209.75,207.59zm2978.39 -252.08c-1006.78,0 -1740.89,726.58 -1740.89,1705.24 0,978.65 734.11,1720.06 1740.89,1720.06 985.81,0 1740.89,-741.41 1740.89,-1720.06 0,-978.66 -755.08,-1705.24 -1740.89,-1705.24zm0 2387.33c-398.51,0 -692.16,-281.74 -692.16,-682.09 0,-400.36 293.65,-682.1 692.16,-682.1 398.52,0 671.19,281.74 671.19,682.1 0,400.35 -272.67,682.09 -671.19,682.09zm4320.77 -2342.84l-1111.66 0c-125.84,0 -209.74,103.8 -209.74,207.59l0 2906.31c0,103.8 83.9,207.59 209.74,207.59l1111.66 0c1111.65,0 1803.81,-652.43 1803.81,-1660.74 0,-1008.31 -692.16,-1660.75 -1803.81,-1660.75zm0 2342.84l-251.7 0 0 -1364.19 251.7 0c482.41,0 734.11,281.74 734.11,682.1 0,400.35 -251.7,682.09 -734.11,682.09zm3041.31 88.97l0 -400.36 859.96 0c125.84,0 230.72,-88.97 230.72,-207.6l0 -355.87c0,-103.8 -104.88,-207.59 -230.72,-207.59l-859.96 0 0 -370.71 1027.75 0c104.88,0 209.75,-88.96 209.75,-207.59l0 -474.5c0,-103.79 -104.87,-207.59 -209.75,-207.59l-1887.71 0c-104.87,0 -209.75,103.8 -209.75,207.59l0 2906.31c0,103.8 104.88,207.59 209.75,207.59l1929.66 0c104.87,0 209.75,-103.79 209.75,-207.59l0 -474.5c0,-118.62 -104.88,-207.59 -209.75,-207.59l-1069.7 0z"/>
  </g>
 </g>
</svg>
