<?xml version="1.0" encoding="UTF-8"?>
<!DOCTYPE svg PUBLIC "-//W3C//DTD SVG 1.1//EN" "http://www.w3.org/Graphics/SVG/1.1/DTD/svg11.dtd">
<!-- Creator: CorelDRAW 2020 (64 Bit) -->
<svg xmlns="http://www.w3.org/2000/svg" xml:space="preserve" width="267.82mm" height="210mm" version="1.1" style="shape-rendering:geometricPrecision; text-rendering:geometricPrecision; image-rendering:optimizeQuality; fill-rule:evenodd; clip-rule:evenodd"
viewBox="0 0 26782 21000"
 xmlns:xlink="http://www.w3.org/1999/xlink"
 xmlns:xodm="http://www.corel.com/coreldraw/odm/2003">
 <defs>
    <clipPath id="id0">
     <path d="M1812.49 208.94l-485.39 688.52c-42.21,83.1 -147.73,142.46 -253.25,142.46l-569.82 0c-105.52,0 -168.83,-106.84 -126.62,-189.94l316.56 -652.91c42.21,-118.71 168.84,-189.94 274.36,-189.94l738.64 0c105.52,0 168.84,118.71 105.52,201.81zm-612.02 1388.92c147.73,0 253.25,118.71 253.25,261.16l0 4606c0,142.45 -105.52,261.16 -253.25,261.16l-738.64 0c-147.73,0 -253.25,-118.71 -253.25,-261.16l0 -4606c0,-142.45 105.52,-261.16 253.25,-261.16l738.64 0zm4094.21 2326.74l-696.43 415.49c-84.42,47.48 -189.94,23.74 -253.25,-35.62 -126.63,-142.45 -337.67,-225.55 -569.82,-225.55 -464.29,0 -780.85,356.14 -780.85,795.37 0,427.36 316.56,795.36 780.85,795.36 232.15,0 443.19,-94.97 569.82,-225.55 63.31,-71.23 168.83,-83.1 253.25,-35.61l696.43 415.49c105.52,59.35 126.63,201.81 42.21,284.9 -358.77,439.23 -907.48,712.27 -1561.71,712.27 -1160.73,0 -1983.79,-842.85 -1983.79,-1946.86 0,-1104.02 823.06,-1946.87 1983.79,-1946.87 654.23,0 1202.94,273.04 1561.71,700.4 84.42,94.97 63.31,225.55 -42.21,296.78zm3819.86 2801.58l-717.54 0c-126.63,0 -211.04,-83.1 -211.04,-189.94l0 -178.06c-211.04,273.03 -548.71,462.97 -1055.21,462.97 -1139.63,0 -1772.75,-973.43 -1772.75,-1946.86 0,-973.43 633.12,-1946.87 1772.75,-1946.87 506.5,0 844.17,178.07 1055.21,451.11l0 -166.2c0,-106.84 84.41,-201.81 211.04,-201.81l717.54 0c147.73,0 274.36,118.71 274.36,261.17l0 3193.33c0,142.45 -126.63,261.16 -274.36,261.16zm-1751.65 -2647.26c-506.5,0 -801.96,332.39 -801.96,795.37 0,451.1 295.46,795.36 801.96,795.36 443.19,0 780.86,-308.65 780.86,-795.36 0,-498.59 -337.67,-795.37 -780.86,-795.37zm4685.13 94.97c-865.27,-59.35 -970.79,498.59 -970.79,1092.14l0 1198.99c0,142.45 -105.52,261.16 -253.25,261.16l-675.33 0c-126.63,0 -253.25,-118.71 -253.25,-261.16l0 -3193.33c0,-142.46 126.62,-261.17 253.25,-261.17l675.33 0c147.73,0 253.25,118.71 253.25,261.17l0 308.65c232.15,-344.27 590.92,-569.82 949.69,-629.17 126.62,-23.75 232.14,59.35 232.14,189.93l0 842.85c0,118.71 -105.52,201.81 -211.04,189.94zm2194.84 2647.26c-1160.73,0 -1983.8,-842.85 -1983.8,-1946.86 0,-1104.02 823.07,-1946.87 1983.8,-1946.87 1181.83,0 2004.9,842.85 2004.9,1946.87 0,1104.01 -823.07,1946.86 -2004.9,1946.86zm0 -2742.23c-464.29,0 -780.86,368.01 -780.86,795.37 0,427.36 316.57,795.36 780.86,795.36 485.39,0 801.96,-368 801.96,-795.36 0,-427.36 -316.57,-795.37 -801.96,-795.37zm-9686.82 4451.67l-295.46 189.94c-63.31,47.48 -168.83,35.61 -232.15,-35.62 -316.56,-320.52 -780.85,-534.2 -1329.56,-534.2 -1202.94,0 -1857.17,973.44 -1857.17,1970.61 0,997.17 654.23,1970.6 1857.17,1970.6 548.71,0 1013,-213.68 1329.56,-546.07 63.32,-71.22 168.84,-83.1 232.15,-23.74l295.46 178.07c84.41,71.22 105.52,213.68 21.1,296.77 -464.29,486.72 -1118.52,771.63 -1878.27,771.63 -1519.5,0 -2616.92,-1151.5 -2616.92,-2647.26 0,-1507.63 1097.42,-2659.13 2616.92,-2659.13 759.75,0 1413.98,284.91 1878.27,771.62 84.42,83.1 63.31,237.42 -21.1,296.78zm4009.79 4154.89l-295.46 0c-105.52,0 -189.93,-94.97 -189.93,-201.81l0 -320.52c-274.36,344.26 -696.44,605.43 -1350.67,605.43 -1160.73,0 -1836.07,-973.43 -1836.07,-1934.99 0,-973.44 675.34,-1958.74 1836.07,-1958.74 654.23,0 1076.31,273.04 1350.67,617.3l0 -332.39c0,-106.84 84.41,-189.94 189.93,-189.94l295.46 0c105.52,0 189.94,83.1 189.94,189.94l0 3323.91c0,106.84 -84.42,201.81 -189.94,201.81zm-1772.75 -3169.59c-759.75,0 -1224.04,557.94 -1224.04,1317.7 0,747.88 464.29,1305.82 1224.04,1305.82 823.06,0 1287.36,-581.69 1287.36,-1305.82 0,-747.88 -464.3,-1317.7 -1287.36,-1317.7zm379.88 -1222.72c-42.21,59.35 -105.52,83.1 -168.84,83.1l-232.14 0c-63.32,0 -105.52,-71.23 -84.42,-130.59l337.67 -747.88c42.21,-83.09 147.73,-142.45 232.14,-142.45l316.57 0c105.52,0 168.83,118.71 105.52,201.81l-506.5 736.01zm3651.02 2231.77c907.48,189.93 1224.04,474.84 1224.04,1044.65 0,652.92 -485.39,1198.99 -1456.19,1198.99 -654.23,0 -1181.83,-213.68 -1413.98,-629.17 -63.31,-106.84 0,-237.42 105.52,-273.04l295.46 -106.84c84.42,-23.74 168.84,11.87 232.15,83.1 84.42,154.32 316.56,320.52 780.85,320.52 485.4,0 759.75,-201.81 759.75,-522.33 0,-439.23 -612.02,-439.23 -1139.62,-557.94 -696.44,-154.33 -991.9,-498.59 -991.9,-1032.79 0,-688.52 548.71,-1175.24 1371.77,-1175.24 506.5,0 970.8,237.42 1181.84,641.04 63.31,106.84 0,249.3 -126.63,273.04l-253.25 71.22c-84.41,23.75 -168.83,0 -211.04,-83.09 -105.52,-154.33 -316.56,-308.65 -654.23,-308.65 -358.77,0 -633.12,213.68 -633.12,522.33 0,415.49 506.5,451.1 928.58,534.2zm3039 0c907.48,189.93 1202.94,474.84 1202.94,1044.65 0,652.92 -464.29,1198.99 -1456.19,1198.99 -633.12,0 -1181.83,-213.68 -1413.98,-629.17 -63.31,-106.84 0,-237.42 105.52,-273.04l295.46 -106.84c84.42,-23.74 189.94,11.87 232.15,83.1 105.52,154.32 337.66,320.52 801.96,320.52 485.39,0 759.75,-201.81 759.75,-522.33 0,-439.23 -633.13,-439.23 -1160.73,-557.94 -675.34,-154.33 -991.9,-498.59 -991.9,-1032.79 0,-688.52 569.81,-1175.24 1371.77,-1175.24 527.61,0 991.9,237.42 1181.84,641.04 63.31,106.84 0,249.3 -105.52,273.04l-274.36 71.22c-84.42,23.75 -168.83,0 -211.04,-83.09 -105.52,-154.33 -316.56,-308.65 -654.23,-308.65 -358.77,0 -633.13,213.68 -633.13,522.33 0,415.49 506.5,451.1 949.69,534.2zm1941.59 -2219.9c-211.04,0 -379.88,-166.2 -379.88,-379.88 0,-213.68 168.84,-379.87 379.88,-379.87 211.04,0 379.87,166.19 379.87,379.87 0,213.68 -168.83,379.88 -379.87,379.88zm-126.63 664.78l274.36 0c105.52,0 189.93,83.1 189.93,189.94l0 3323.91c0,106.84 -84.41,201.81 -189.93,201.81l-274.36 0c-126.62,0 -211.04,-94.97 -211.04,-201.81l0 -3323.91c0,-106.84 84.42,-189.94 211.04,-189.94zm2849.07 3810.63c-1118.52,0 -1941.59,-878.46 -1941.59,-1946.86 0,-1068.4 823.07,-1958.74 1941.59,-1958.74 1118.52,0 1941.58,890.34 1941.58,1958.74 0,1068.4 -823.06,1946.86 -1941.58,1946.86zm0 -3264.56c-738.65,0 -1266.25,546.07 -1266.25,1317.7 0,747.88 527.6,1305.82 1266.25,1305.82 738.64,0 1266.25,-557.94 1266.25,-1305.82 0,-771.63 -527.61,-1317.7 -1266.25,-1317.7zm-14836.24 11372.53l-1392.88 0c-253.25,0 -464.29,-213.68 -464.29,-474.85l0 -4297.34 -717.54 498.59c-168.84,118.71 -400.98,59.35 -527.61,-106.84l-548.71 -902.21c-84.41,-178.06 -42.21,-391.74 105.52,-498.58l2026 -1341.44c84.42,-71.23 189.94,-94.97 295.46,-94.97l1224.05 0c274.35,0 464.29,201.81 464.29,451.1l0 6291.69c0,261.17 -189.94,474.85 -464.29,474.85zm5634.81 -3751.27c738.65,296.77 1202.94,842.85 1202.94,1709.44 0,1483.89 -1202.94,2160.54 -2912.38,2160.54 -1371.77,0 -2532.5,-581.69 -2933.48,-1614.47 -84.41,-213.68 42.21,-439.23 253.25,-486.72l1730.55 -368c126.62,-35.62 253.25,35.61 316.56,154.32 84.42,178.07 274.35,308.65 548.71,308.65 358.77,0 527.6,-213.68 527.6,-522.33 0,-249.29 -168.83,-427.36 -527.6,-427.36l-612.02 0c-147.73,0 -274.36,-130.58 -274.36,-284.9l0 -1175.24c0,-154.33 126.63,-273.04 274.36,-273.04l612.02 0c295.46,0 527.6,-118.71 527.6,-415.49 0,-284.91 -232.14,-439.23 -527.6,-439.23 -211.04,0 -379.88,106.84 -443.19,261.16 -63.31,118.72 -189.94,178.07 -316.56,154.33l-1561.71 -356.13c-232.15,-47.49 -337.67,-273.04 -274.36,-486.72 358.77,-925.95 1287.36,-1495.76 2680.23,-1495.76 1709.44,0 2722.44,783.49 2722.44,2077.44 0,664.79 -358.77,1198.99 -1013,1519.51zm4875.07 3751.27l-1392.88 0c-253.25,0 -443.18,-213.68 -443.18,-474.85l0 -4297.34 -738.65 498.59c-168.83,118.71 -400.98,59.35 -527.61,-106.84l-527.6 -902.21c-105.52,-178.06 -63.31,-391.74 84.42,-498.58l2026 -1341.44c84.42,-71.23 189.94,-94.97 295.46,-94.97l1224.04 0c274.35,0 464.29,201.81 464.29,451.1l0 6291.69c0,261.17 -189.94,474.85 -464.29,474.85zm6563.4 -1673.83l0 1198.98c0,261.17 -211.04,474.85 -443.19,474.85l-4431.88 0c-253.25,0 -443.18,-213.68 -443.18,-474.85l0 -700.39c0,-142.46 42.2,-273.04 147.73,-379.88 506.5,-486.71 1202.93,-1187.11 1814.96,-1863.76 569.81,-605.43 991.89,-1020.92 991.89,-1270.21 0,-273.04 -147.73,-498.59 -485.39,-498.59 -274.36,0 -443.19,142.46 -506.5,332.39 -42.21,142.46 -168.84,213.68 -316.57,178.07l-1498.39 -332.39c-211.05,-47.49 -337.67,-249.29 -274.36,-462.97 337.67,-1175.25 1456.19,-1875.64 2764.65,-1875.64 1772.75,0 2638.02,1080.27 2638.02,2338.61 0,937.82 -548.71,1555.11 -1857.17,2884.68l1456.19 0c232.15,0 443.19,201.81 443.19,451.1zm4811.76 -2077.44c738.64,296.77 1202.93,842.85 1202.93,1709.44 0,1483.89 -1202.93,2160.54 -2912.37,2160.54 -1371.78,0 -2553.61,-581.69 -2933.49,-1614.47 -84.41,-213.68 42.21,-439.23 253.25,-486.72l1730.55 -368c126.62,-35.62 253.25,35.61 316.56,154.32 84.42,178.07 274.36,308.65 548.71,308.65 358.77,0 527.6,-213.68 527.6,-522.33 0,-249.29 -168.83,-427.36 -527.6,-427.36l-612.02 0c-147.73,0 -274.36,-130.58 -274.36,-284.9l0 -1175.24c0,-154.33 126.63,-273.04 274.36,-273.04l612.02 0c295.46,0 527.6,-118.71 527.6,-415.49 0,-284.91 -232.14,-439.23 -527.6,-439.23 -232.15,0 -379.88,106.84 -464.29,261.16 -63.32,118.72 -189.94,178.07 -316.57,154.33l-1561.7 -356.13c-211.05,-47.49 -337.67,-273.04 -253.26,-486.72 337.67,-925.95 1287.36,-1495.76 2680.24,-1495.76 1709.44,0 2722.44,783.49 2722.44,2077.44 0,664.79 -379.88,1198.99 -1013,1519.51z"/>
    </clipPath>
    <clipPath id="id1">
     <path d="M3289.79 1087.4l-295.46 854.72c-21.11,23.74 -42.21,47.49 -63.31,47.49l-147.73 0c-21.11,0 -42.21,-23.75 -42.21,-47.49l-316.57 -854.72c0,-23.74 0,-47.48 42.21,-47.48l84.42 0c42.21,0 63.31,11.87 63.31,35.61l253.25 724.14 232.15 -724.14c21.1,-23.74 42.21,-35.61 63.31,-35.61l105.52 0c21.11,0 42.21,23.74 21.11,47.48zm1435.08 617.3l-464.29 0c21.1,94.97 105.52,142.45 189.94,142.45 63.31,0 105.52,-23.74 126.62,-47.48 21.11,-11.87 42.21,-11.87 42.21,0l84.42 47.48c21.1,11.87 21.1,35.62 0,47.49 -42.21,59.35 -147.73,106.84 -253.25,106.84 -232.15,0 -379.88,-154.33 -379.88,-356.14 0,-213.68 168.83,-368 358.77,-368 189.94,0 358.77,142.45 337.67,379.88 0,35.61 -21.1,47.48 -42.21,47.48zm-295.46 -273.04c-84.41,0 -147.73,59.36 -168.83,142.46l337.67 0c-21.11,-94.97 -84.42,-142.46 -168.84,-142.46zm1625.02 35.62c-168.83,-11.87 -189.93,118.71 -189.93,237.42l0 237.42c0,23.74 -42.21,47.49 -63.32,47.49l-63.31 0c-42.21,0 -63.31,-23.75 -63.31,-47.49l0 -593.55c0,-23.75 21.1,-47.49 63.31,-47.49l63.31 0c21.11,0 63.32,23.74 63.32,47.49l0 59.35c42.21,-71.22 105.52,-106.84 168.83,-118.71 21.1,-11.87 42.21,11.87 42.21,35.61l0 106.84c0,23.75 0,35.62 -21.11,35.62zm1540.61 237.42l-464.29 0c21.1,94.97 84.41,142.45 189.94,142.45 63.31,0 105.52,-23.74 126.62,-47.48 21.1,-11.87 42.21,-11.87 42.21,0l84.42 47.48c21.1,11.87 21.1,35.62 0,47.49 -42.21,59.35 -147.73,106.84 -253.25,106.84 -232.15,0 -379.88,-154.33 -379.88,-356.14 0,-213.68 168.83,-368 358.77,-368 189.94,0 337.67,142.45 337.67,379.88 0,35.61 -21.11,47.48 -42.21,47.48zm-295.46 -273.04c-84.42,0 -147.73,59.36 -168.83,142.46l337.66 0c-21.1,-94.97 -84.41,-142.46 -168.83,-142.46zm1899.38 557.95l-84.42 0c-21.1,0 -42.21,-23.75 -42.21,-47.49l0 -35.61c-42.21,59.35 -126.62,94.97 -232.14,94.97 -211.04,0 -337.67,-178.07 -337.67,-356.14 0,-178.06 126.63,-368 337.67,-368 105.52,0 189.93,47.48 232.14,106.84l0 -35.61c0,-23.75 21.11,-47.49 42.21,-47.49l84.42 0c21.1,0 42.21,23.74 42.21,47.49l0 593.55c0,23.74 -21.11,47.49 -42.21,47.49zm-337.67 -546.07c-105.52,0 -168.83,94.96 -168.83,201.8 0,106.84 63.31,189.94 168.83,189.94 126.63,0 189.94,-83.1 189.94,-189.94 0,-106.84 -63.31,-201.8 -189.94,-201.8zm1962.69 546.07l-63.31 0c-42.21,0 -63.31,-23.75 -63.31,-47.49l0 -35.61c-42.21,59.35 -105.53,94.97 -211.05,94.97 -211.04,0 -337.66,-178.07 -337.66,-356.14 0,-178.06 126.62,-368 337.66,-368 105.52,0 168.84,47.48 211.05,106.84l0 -296.78c0,-35.61 21.1,-47.48 63.31,-47.48l63.31 0c21.1,0 42.21,11.87 42.21,47.48l0 854.72c0,23.74 -21.11,47.49 -42.21,47.49zm-316.56 -546.07c-105.52,0 -189.94,94.96 -189.94,201.8 0,106.84 84.42,189.94 189.94,189.94 126.62,0 189.94,-83.1 189.94,-189.94 0,-106.84 -63.32,-201.8 -189.94,-201.8zm1646.12 557.94c-211.04,0 -358.77,-154.33 -358.77,-356.14 0,-201.8 147.73,-368 358.77,-368 211.05,0 358.77,166.2 358.77,368 0,201.81 -147.72,356.14 -358.77,356.14zm0 -557.94c-126.62,0 -189.93,94.96 -189.93,201.8 0,106.84 63.31,189.94 189.93,189.94 105.52,0 189.94,-83.1 189.94,-189.94 0,-106.84 -84.42,-201.8 -189.94,-201.8zm1646.13 23.74c-168.83,-11.87 -211.04,118.71 -211.04,237.42l0 237.42c0,23.74 -21.11,47.49 -42.21,47.49l-63.31 0c-42.21,0 -63.32,-23.75 -63.32,-47.49l0 -593.55c0,-23.75 21.11,-47.49 63.32,-47.49l63.31 0c21.1,0 42.21,23.74 42.21,47.49l0 59.35c42.21,-71.22 126.62,-106.84 189.94,-118.71 21.1,-11.87 42.2,11.87 42.2,35.61l0 106.84c0,23.75 0,35.62 -21.1,35.62z"/>
    </clipPath>
 </defs>
 <g id="Camada_x0020_1">
  <metadata id="CorelCorpID_0Corel-Layer"/>
  <g id="_2243722955072">
   <g style="clip-path:url(#id0)">
    <image x="-7156.79" y="-15413.44" width="74455.56" height="41881.28" xlink:href="logo_number_Images\logo_number_ImgID1.png"/>
   </g>
   <g style="clip-path:url(#id1)">
    <image x="-7156.79" y="-15413.44" width="74455.56" height="41881.28" xlink:href="logo_number_Images\logo_number_ImgID2.png"/>
   </g>
  </g>
 </g>
</svg>
