<?xml version="1.0" encoding="UTF-8"?>
<!DOCTYPE svg PUBLIC "-//W3C//DTD SVG 1.1//EN" "http://www.w3.org/Graphics/SVG/1.1/DTD/svg11.dtd">
<!-- Creator: CorelDRAW 2020 (64 Bit) -->
<svg xmlns="http://www.w3.org/2000/svg" xml:space="preserve" width="297mm" height="210mm" version="1.1" style="shape-rendering:geometricPrecision; text-rendering:geometricPrecision; image-rendering:optimizeQuality; fill-rule:evenodd; clip-rule:evenodd"
viewBox="0 0 29700 21000"
 xmlns:xlink="http://www.w3.org/1999/xlink"
 xmlns:xodm="http://www.corel.com/coreldraw/odm/2003">
 <defs>
  <style type="text/css">
   <![CDATA[
    .fil0 {fill:white}
   ]]>
  </style>
 </defs>
 <g id="Camada_x0020_1">
  <metadata id="CorelCorpID_0Corel-Layer"/>
  <g id="_2150457962144">
   <path class="fil0" d="M3483.52 2200.55l-651.92 924.72c-56.69,111.61 -198.41,191.32 -340.13,191.32l-765.28 0c-141.73,0 -226.76,-143.49 -170.07,-255.09l425.16 -876.9c56.69,-159.43 226.75,-255.09 368.47,-255.09l992.05 0c141.72,0 226.75,159.43 141.72,271.04zm-821.98 1865.39c198.41,0 340.13,159.43 340.13,350.76l0 6186.09c0,191.32 -141.72,350.76 -340.13,350.76l-992.04 0c-198.41,0 -340.13,-159.44 -340.13,-350.76l0 -6186.09c0,-191.33 141.72,-350.76 340.13,-350.76l992.04 0zm5498.74 3124.93l-935.35 558.03c-113.38,63.77 -255.1,31.88 -340.13,-47.83 -170.06,-191.33 -453.5,-302.93 -765.29,-302.93 -623.57,0 -1048.73,478.3 -1048.73,1068.22 0,573.96 425.16,1068.21 1048.73,1068.21 311.79,0 595.23,-127.55 765.29,-302.92 85.03,-95.67 226.75,-111.61 340.13,-47.84l935.35 558.03c141.72,79.72 170.07,271.04 56.69,382.64 -481.85,589.91 -1218.79,956.62 -2097.46,956.62 -1558.92,0 -2664.34,-1132 -2664.34,-2614.74 0,-1482.75 1105.42,-2614.74 2664.34,-2614.74 878.67,0 1615.61,366.7 2097.46,940.66 113.38,127.55 85.03,302.93 -56.69,398.59zm5130.28 3762.68l-963.7 0c-170.07,0 -283.44,-111.61 -283.44,-255.1l0 -239.15c-283.44,366.7 -736.95,621.8 -1417.2,621.8 -1530.58,0 -2380.9,-1307.37 -2380.9,-2614.74 0,-1307.37 850.32,-2614.74 2380.9,-2614.74 680.25,0 1133.76,239.15 1417.2,605.85l0 -223.21c0,-143.49 113.37,-271.04 283.44,-271.04l963.7 0c198.41,0 368.47,159.44 368.47,350.76l0 4288.81c0,191.32 -170.06,350.76 -368.47,350.76zm-2352.56 -3555.41c-680.26,0 -1077.07,446.42 -1077.07,1068.22 0,605.85 396.81,1068.21 1077.07,1068.21 595.23,0 1048.73,-414.53 1048.73,-1068.21 0,-669.63 -453.5,-1068.22 -1048.73,-1068.22zm6292.38 127.55c-1162.11,-79.72 -1303.83,669.63 -1303.83,1466.8l0 1610.3c0,191.32 -141.72,350.76 -340.13,350.76l-907 0c-170.07,0 -340.13,-159.44 -340.13,-350.76l0 -4288.81c0,-191.32 170.06,-350.76 340.13,-350.76l907 0c198.41,0 340.13,159.44 340.13,350.76l0 414.53c311.79,-462.36 793.64,-765.29 1275.49,-845.01 170.06,-31.88 311.78,79.72 311.78,255.1l0 1131.99c0,159.44 -141.72,271.04 -283.44,255.1zm2947.78 3555.41c-1558.92,0 -2664.34,-1132 -2664.34,-2614.74 0,-1482.75 1105.42,-2614.74 2664.34,-2614.74 1587.27,0 2692.69,1131.99 2692.69,2614.74 0,1482.74 -1105.42,2614.74 -2692.69,2614.74zm0 -3682.96c-623.57,0 -1048.73,494.25 -1048.73,1068.22 0,573.96 425.16,1068.21 1048.73,1068.21 651.91,0 1077.07,-494.25 1077.07,-1068.21 0,-573.97 -425.16,-1068.22 -1077.07,-1068.22zm-13009.92 5978.83l-396.81 255.09c-85.04,63.78 -226.76,47.83 -311.79,-47.83 -425.16,-430.47 -1048.73,-717.46 -1785.67,-717.46 -1615.61,0 -2494.28,1307.37 -2494.28,2646.63 0,1339.26 878.67,2646.63 2494.28,2646.63 736.94,0 1360.51,-286.99 1785.67,-733.41 85.03,-95.66 226.75,-111.6 311.79,-31.88l396.81 239.15c113.38,95.66 141.72,286.98 28.35,398.59 -623.57,653.68 -1502.24,1036.33 -2522.62,1036.33 -2040.78,0 -3514.67,-1546.53 -3514.67,-3555.41 0,-2024.83 1473.89,-3571.35 3514.67,-3571.35 1020.38,0 1899.05,382.64 2522.62,1036.33 113.37,111.6 85.03,318.87 -28.35,398.59zm5385.37 5580.23l-396.82 0c-141.72,0 -255.09,-127.55 -255.09,-271.04l0 -430.47c-368.47,462.36 -935.36,813.12 -1814.02,813.12 -1558.92,0 -2465.93,-1307.37 -2465.93,-2598.8 0,-1307.37 907.01,-2630.68 2465.93,-2630.68 878.66,0 1445.55,366.7 1814.02,829.06l0 -446.42c0,-143.49 113.37,-255.09 255.09,-255.09l396.82 0c141.72,0 255.1,111.6 255.1,255.09l0 4464.19c0,143.49 -113.38,271.04 -255.1,271.04zm-2380.9 -4256.92c-1020.38,0 -1643.95,749.34 -1643.95,1769.73 0,1004.44 623.57,1753.79 1643.95,1753.79 1105.42,0 1728.99,-781.23 1728.99,-1753.79 0,-1004.44 -623.57,-1769.73 -1728.99,-1769.73zm510.19 -1642.19c-56.68,79.72 -141.72,111.61 -226.75,111.61l-311.78 0c-85.03,0 -141.72,-95.66 -113.38,-175.38l453.51 -1004.44c56.68,-111.61 198.4,-191.33 311.78,-191.33l425.16 0c141.72,0 226.75,159.44 141.72,271.05l-680.26 988.49zm4903.52 2997.39c1218.8,255.1 1643.96,637.74 1643.96,1403.03 0,876.89 -651.91,1610.3 -1955.74,1610.3 -878.67,0 -1587.27,-286.99 -1899.05,-845.01 -85.03,-143.49 0,-318.87 141.72,-366.7l396.82 -143.49c113.37,-31.89 226.75,15.94 311.78,111.6 113.38,207.27 425.16,430.48 1048.73,430.48 651.91,0 1020.39,-271.04 1020.39,-701.52 0,-589.91 -821.98,-589.91 -1530.58,-749.34 -935.36,-207.27 -1332.17,-669.63 -1332.17,-1387.09 0,-924.73 736.94,-1578.41 1842.36,-1578.41 680.26,0 1303.83,318.87 1587.27,860.95 85.03,143.49 0,334.81 -170.07,366.7l-340.13 95.66c-113.37,31.89 -226.75,0 -283.44,-111.6 -141.72,-207.27 -425.16,-414.54 -878.66,-414.54 -481.85,0 -850.32,286.99 -850.32,701.52 0,558.02 680.25,605.85 1247.13,717.46zm4081.55 0c1218.79,255.1 1615.61,637.74 1615.61,1403.03 0,876.89 -623.57,1610.3 -1955.74,1610.3 -850.32,0 -1587.27,-286.99 -1899.05,-845.01 -85.03,-143.49 0,-318.87 141.72,-366.7l396.81 -143.49c113.38,-31.89 255.1,15.94 311.79,111.6 141.72,207.27 453.5,430.48 1077.07,430.48 651.92,0 1020.39,-271.04 1020.39,-701.52 0,-589.91 -850.32,-589.91 -1558.92,-749.34 -907.01,-207.27 -1332.17,-669.63 -1332.17,-1387.09 0,-924.73 765.29,-1578.41 1842.36,-1578.41 708.6,0 1332.17,318.87 1587.27,860.95 85.03,143.49 0,334.81 -141.72,366.7l-368.48 95.66c-113.37,31.89 -226.75,0 -283.44,-111.6 -141.72,-207.27 -425.16,-414.54 -878.66,-414.54 -481.85,0 -850.32,286.99 -850.32,701.52 0,558.02 680.25,605.85 1275.48,717.46zm2607.65 -2981.44c-283.44,0 -510.19,-223.21 -510.19,-510.2 0,-286.98 226.75,-510.19 510.19,-510.19 283.44,0 510.19,223.21 510.19,510.19 0,286.99 -226.75,510.2 -510.19,510.2zm-170.06 892.84l368.47 0c141.72,0 255.09,111.6 255.09,255.09l0 4464.19c0,143.49 -113.37,271.04 -255.09,271.04l-368.47 0c-170.07,0 -283.44,-127.55 -283.44,-271.04l0 -4464.19c0,-143.49 113.37,-255.09 283.44,-255.09zm3826.44 5117.87c-1502.23,0 -2607.65,-1179.82 -2607.65,-2614.74 0,-1434.92 1105.42,-2630.68 2607.65,-2630.68 1502.24,0 2607.65,1195.76 2607.65,2630.68 0,1434.92 -1105.41,2614.74 -2607.65,2614.74zm0 -4384.47c-992.04,0 -1700.64,733.4 -1700.64,1769.73 0,1004.44 708.6,1753.79 1700.64,1753.79 992.04,0 1700.65,-749.35 1700.65,-1753.79 0,-1036.33 -708.61,-1769.73 -1700.65,-1769.73z"/>
   <g>
    <path class="fil0" d="M5467.6 3380.37l-396.82 1147.93c-28.34,31.89 -56.69,63.78 -85.03,63.78l-198.41 0c-28.34,0 -56.69,-31.89 -56.69,-63.78l-425.16 -1147.93c0,-31.89 0,-63.78 56.69,-63.78l113.38 0c56.69,0 85.03,15.95 85.03,47.83l340.13 972.56 311.78 -972.56c28.35,-31.88 56.69,-47.83 85.04,-47.83l141.72 0c28.34,0 56.68,31.89 28.34,63.78zm1927.39 829.06l-623.56 0c28.34,127.55 141.72,191.32 255.09,191.32 85.03,0 141.72,-31.88 170.07,-63.77 28.34,-15.94 56.68,-15.94 56.68,0l113.38 63.77c28.34,15.95 28.34,47.83 0,63.78 -56.69,79.72 -198.41,143.49 -340.13,143.49 -311.78,0 -510.19,-207.27 -510.19,-478.31 0,-286.98 226.75,-494.25 481.85,-494.25 255.09,0 481.85,191.33 453.5,510.2 0,47.83 -28.34,63.77 -56.69,63.77zm-396.81 -366.7c-113.38,0 -198.41,79.72 -226.75,191.32l453.5 0c-28.34,-127.55 -113.38,-191.32 -226.75,-191.32zm2182.49 47.83c-226.75,-15.94 -255.1,159.44 -255.1,318.87l0 318.87c0,31.89 -56.68,63.78 -85.03,63.78l-85.03 0c-56.69,0 -85.03,-31.89 -85.03,-63.78l0 -797.17c0,-31.89 28.34,-63.78 85.03,-63.78l85.03 0c28.35,0 85.03,31.89 85.03,63.78l0 79.71c56.69,-95.66 141.72,-143.49 226.76,-159.43 28.34,-15.95 56.68,15.94 56.68,47.83l0 143.49c0,31.89 0,47.83 -28.34,47.83zm2069.12 318.87l-623.57 0c28.34,127.55 113.37,191.32 255.09,191.32 85.03,0 141.72,-31.88 170.07,-63.77 28.34,-15.94 56.69,-15.94 56.69,0l113.37 63.77c28.35,15.95 28.35,47.83 0,63.78 -56.69,79.72 -198.41,143.49 -340.13,143.49 -311.78,0 -510.19,-207.27 -510.19,-478.31 0,-286.98 226.75,-494.25 481.85,-494.25 255.1,0 453.5,191.33 453.5,510.2 0,47.83 -28.34,63.77 -56.68,63.77zm-396.82 -366.7c-113.38,0 -198.41,79.72 -226.75,191.32l453.5 0c-28.34,-127.55 -113.38,-191.32 -226.75,-191.32zm2550.96 749.35l-113.37 0c-28.35,0 -56.69,-31.89 -56.69,-63.78l0 -47.83c-56.69,79.72 -170.07,127.55 -311.79,127.55 -283.44,0 -453.5,-239.15 -453.5,-478.31 0,-239.15 170.06,-494.25 453.5,-494.25 141.72,0 255.1,63.78 311.79,143.5l0 -47.83c0,-31.89 28.34,-63.78 56.69,-63.78l113.37 0c28.35,0 56.69,31.89 56.69,63.78l0 797.17c0,31.89 -28.34,63.78 -56.69,63.78zm-453.5 -733.41c-141.72,0 -226.75,127.55 -226.75,271.04 0,143.5 85.03,255.1 226.75,255.1 170.06,0 255.09,-111.6 255.09,-255.1 0,-143.49 -85.03,-271.04 -255.09,-271.04zm2635.99 733.41l-85.03 0c-56.69,0 -85.03,-31.89 -85.03,-63.78l0 -47.83c-56.69,79.72 -141.72,127.55 -283.44,127.55 -283.44,0 -453.5,-239.15 -453.5,-478.31 0,-239.15 170.06,-494.25 453.5,-494.25 141.72,0 226.75,63.78 283.44,143.5l0 -398.59c0,-47.83 28.34,-63.78 85.03,-63.78l85.03 0c28.35,0 56.69,15.95 56.69,63.78l0 1147.93c0,31.89 -28.34,63.78 -56.69,63.78zm-425.16 -733.41c-141.72,0 -255.09,127.55 -255.09,271.04 0,143.5 113.37,255.1 255.09,255.1 170.07,0 255.1,-111.6 255.1,-255.1 0,-143.49 -85.03,-271.04 -255.1,-271.04zm2210.84 749.35c-283.44,0 -481.85,-207.27 -481.85,-478.31 0,-271.04 198.41,-494.25 481.85,-494.25 283.44,0 481.85,223.21 481.85,494.25 0,271.04 -198.41,478.31 -481.85,478.31zm0 -749.35c-170.06,0 -255.1,127.55 -255.1,271.04 0,143.5 85.04,255.1 255.1,255.1 141.72,0 255.1,-111.6 255.1,-255.1 0,-143.49 -113.38,-271.04 -255.1,-271.04zm2210.84 31.89c-226.76,-15.94 -283.44,159.44 -283.44,318.87l0 318.87c0,31.89 -28.35,63.78 -56.69,63.78l-85.04 0c-56.68,0 -85.03,-31.89 -85.03,-63.78l0 -797.17c0,-31.89 28.35,-63.78 85.03,-63.78l85.04 0c28.34,0 56.69,31.89 56.69,63.78l0 79.71c56.68,-95.66 170.06,-143.49 255.09,-159.43 28.35,-15.95 56.69,15.94 56.69,47.83l0 143.49c0,31.89 0,47.83 -28.34,47.83z"/>
    <path class="fil0" d="M5467.6 3380.37l-396.82 1147.93c-28.34,31.89 -56.69,63.78 -85.03,63.78l-198.41 0c-28.34,0 -56.69,-31.89 -56.69,-63.78l-425.16 -1147.93c0,-31.89 0,-63.78 56.69,-63.78l113.38 0c56.69,0 85.03,15.95 85.03,47.83l340.13 972.56 311.78 -972.56c28.35,-31.88 56.69,-47.83 85.04,-47.83l141.72 0c28.34,0 56.68,31.89 28.34,63.78zm1927.39 829.06l-623.56 0c28.34,127.55 141.72,191.32 255.09,191.32 85.03,0 141.72,-31.88 170.07,-63.77 28.34,-15.94 56.68,-15.94 56.68,0l113.38 63.77c28.34,15.95 28.34,47.83 0,63.78 -56.69,79.72 -198.41,143.49 -340.13,143.49 -311.78,0 -510.19,-207.27 -510.19,-478.31 0,-286.98 226.75,-494.25 481.85,-494.25 255.09,0 481.85,191.33 453.5,510.2 0,47.83 -28.34,63.77 -56.69,63.77zm-396.81 -366.7c-113.38,0 -198.41,79.72 -226.75,191.32l453.5 0c-28.34,-127.55 -113.38,-191.32 -226.75,-191.32zm2182.49 47.83c-226.75,-15.94 -255.1,159.44 -255.1,318.87l0 318.87c0,31.89 -56.68,63.78 -85.03,63.78l-85.03 0c-56.69,0 -85.03,-31.89 -85.03,-63.78l0 -797.17c0,-31.89 28.34,-63.78 85.03,-63.78l85.03 0c28.35,0 85.03,31.89 85.03,63.78l0 79.71c56.69,-95.66 141.72,-143.49 226.76,-159.43 28.34,-15.95 56.68,15.94 56.68,47.83l0 143.49c0,31.89 0,47.83 -28.34,47.83zm2069.12 318.87l-623.57 0c28.34,127.55 113.37,191.32 255.09,191.32 85.03,0 141.72,-31.88 170.07,-63.77 28.34,-15.94 56.69,-15.94 56.69,0l113.37 63.77c28.35,15.95 28.35,47.83 0,63.78 -56.69,79.72 -198.41,143.49 -340.13,143.49 -311.78,0 -510.19,-207.27 -510.19,-478.31 0,-286.98 226.75,-494.25 481.85,-494.25 255.1,0 453.5,191.33 453.5,510.2 0,47.83 -28.34,63.77 -56.68,63.77zm-396.82 -366.7c-113.38,0 -198.41,79.72 -226.75,191.32l453.5 0c-28.34,-127.55 -113.38,-191.32 -226.75,-191.32zm2550.96 749.35l-113.37 0c-28.35,0 -56.69,-31.89 -56.69,-63.78l0 -47.83c-56.69,79.72 -170.07,127.55 -311.79,127.55 -283.44,0 -453.5,-239.15 -453.5,-478.31 0,-239.15 170.06,-494.25 453.5,-494.25 141.72,0 255.1,63.78 311.79,143.5l0 -47.83c0,-31.89 28.34,-63.78 56.69,-63.78l113.37 0c28.35,0 56.69,31.89 56.69,63.78l0 797.17c0,31.89 -28.34,63.78 -56.69,63.78zm-453.5 -733.41c-141.72,0 -226.75,127.55 -226.75,271.04 0,143.5 85.03,255.1 226.75,255.1 170.06,0 255.09,-111.6 255.09,-255.1 0,-143.49 -85.03,-271.04 -255.09,-271.04zm2635.99 733.41l-85.03 0c-56.69,0 -85.03,-31.89 -85.03,-63.78l0 -47.83c-56.69,79.72 -141.72,127.55 -283.44,127.55 -283.44,0 -453.5,-239.15 -453.5,-478.31 0,-239.15 170.06,-494.25 453.5,-494.25 141.72,0 226.75,63.78 283.44,143.5l0 -398.59c0,-47.83 28.34,-63.78 85.03,-63.78l85.03 0c28.35,0 56.69,15.95 56.69,63.78l0 1147.93c0,31.89 -28.34,63.78 -56.69,63.78zm-425.16 -733.41c-141.72,0 -255.09,127.55 -255.09,271.04 0,143.5 113.37,255.1 255.09,255.1 170.07,0 255.1,-111.6 255.1,-255.1 0,-143.49 -85.03,-271.04 -255.1,-271.04zm2210.84 749.35c-283.44,0 -481.85,-207.27 -481.85,-478.31 0,-271.04 198.41,-494.25 481.85,-494.25 283.44,0 481.85,223.21 481.85,494.25 0,271.04 -198.41,478.31 -481.85,478.31zm0 -749.35c-170.06,0 -255.1,127.55 -255.1,271.04 0,143.5 85.04,255.1 255.1,255.1 141.72,0 255.1,-111.6 255.1,-255.1 0,-143.49 -113.38,-271.04 -255.1,-271.04zm2210.84 31.89c-226.76,-15.94 -283.44,159.44 -283.44,318.87l0 318.87c0,31.89 -28.35,63.78 -56.69,63.78l-85.04 0c-56.68,0 -85.03,-31.89 -85.03,-63.78l0 -797.17c0,-31.89 28.35,-63.78 85.03,-63.78l85.04 0c28.34,0 56.69,31.89 56.69,63.78l0 79.71c56.68,-95.66 170.06,-143.49 255.09,-159.43 28.35,-15.95 56.69,15.94 56.69,47.83l0 143.49c0,31.89 0,47.83 -28.34,47.83z"/>
   </g>
  </g>
 </g>
</svg>
