<?xml version="1.0" encoding="UTF-8"?>
<!DOCTYPE svg PUBLIC "-//W3C//DTD SVG 1.1//EN" "http://www.w3.org/Graphics/SVG/1.1/DTD/svg11.dtd">
<!-- Creator: CorelDRAW 2020 (64 Bit) -->
<svg xmlns="http://www.w3.org/2000/svg" xml:space="preserve" width="297mm" height="210mm" version="1.1" style="shape-rendering:geometricPrecision; text-rendering:geometricPrecision; image-rendering:optimizeQuality; fill-rule:evenodd; clip-rule:evenodd"
viewBox="0 0 29700 21000"
 xmlns:xlink="http://www.w3.org/1999/xlink"
 xmlns:xodm="http://www.corel.com/coreldraw/odm/2003">
 <defs>
  <style type="text/css">
   <![CDATA[
    .fil1 {fill:black}
    .fil0 {fill:white}
    .fil2 {fill:white}
   ]]>
  </style>
 </defs>
 <g id="Camada_x0020_1">
  <metadata id="CorelCorpID_0Corel-Layer"/>
  <path class="fil0" d="M3617.27 514.13l-471.01 668.12c-40.96,80.63 -143.36,138.23 -245.75,138.23l-552.93 0c-102.39,0 -163.83,-103.67 -122.87,-184.31l307.18 -633.56c40.96,-115.19 163.83,-184.31 266.23,-184.31l716.75 0c102.4,0 163.83,115.19 102.4,195.83zm-593.89 1347.76c143.35,0 245.75,115.19 245.75,253.42l0 4469.5c0,138.23 -102.4,253.42 -245.75,253.42l-716.75 0c-143.35,0 -245.75,-115.19 -245.75,-253.42l0 -4469.5c0,-138.23 102.4,-253.42 245.75,-253.42l716.75 0zm3972.88 2257.78l-675.8 403.18c-81.91,46.08 -184.31,23.04 -245.74,-34.56 -122.87,-138.23 -327.66,-218.87 -552.93,-218.87 -450.53,0 -757.71,345.58 -757.71,771.8 0,414.69 307.18,771.79 757.71,771.79 225.27,0 430.06,-92.15 552.93,-218.87 61.43,-69.11 163.83,-80.63 245.74,-34.55l675.8 403.17c102.4,57.6 122.88,195.83 40.96,276.47 -348.14,426.21 -880.59,691.15 -1515.43,691.15 -1126.33,0 -1925,-817.87 -1925,-1889.16 0,-1071.3 798.67,-1889.17 1925,-1889.17 634.84,0 1167.29,264.95 1515.43,679.64 81.92,92.16 61.44,218.87 -40.96,287.98zm3706.66 2718.56l-696.28 0c-122.87,0 -204.79,-80.63 -204.79,-184.31l0 -172.79c-204.79,264.95 -532.45,449.25 -1023.94,449.25 -1105.85,0 -1720.21,-944.58 -1720.21,-1889.16 0,-944.59 614.36,-1889.17 1720.21,-1889.17 491.49,0 819.15,172.79 1023.94,437.74l0 -161.28c0,-103.67 81.92,-195.82 204.79,-195.82l696.28 0c143.35,0 266.22,115.19 266.22,253.42l0 3098.7c0,138.23 -122.87,253.42 -266.22,253.42zm-1699.74 -2568.81c-491.49,0 -778.19,322.55 -778.19,771.8 0,437.73 286.7,771.79 778.19,771.79 430.05,0 757.71,-299.5 757.71,-771.79 0,-483.81 -327.66,-771.8 -757.71,-771.8zm4546.29 92.16c-839.63,-57.6 -942.03,483.81 -942.03,1059.78l0 1163.45c0,138.23 -102.39,253.42 -245.74,253.42l-655.32 0c-122.88,0 -245.75,-115.19 -245.75,-253.42l0 -3098.7c0,-138.23 122.87,-253.42 245.75,-253.42l655.32 0c143.35,0 245.74,115.19 245.74,253.42l0 299.5c225.27,-334.06 573.41,-552.92 921.55,-610.52 122.87,-23.04 225.26,57.6 225.26,184.31l0 817.87c0,115.19 -102.39,195.83 -204.78,184.31zm2129.79 2568.8c-1126.34,0 -1925.01,-817.87 -1925.01,-1889.16 0,-1071.3 798.67,-1889.17 1925.01,-1889.17 1146.81,0 1945.48,817.87 1945.48,1889.17 0,1071.29 -798.67,1889.16 -1945.48,1889.16zm0 -2660.96c-450.54,0 -757.72,357.1 -757.72,771.8 0,414.69 307.18,771.79 757.72,771.79 471.01,0 778.19,-357.1 778.19,-771.79 0,-414.7 -307.18,-771.8 -778.19,-771.8zm-9399.75 4319.75l-286.71 184.3c-61.43,46.08 -163.83,34.56 -225.26,-34.55 -307.18,-311.03 -757.72,-518.37 -1290.16,-518.37 -1167.29,0 -1802.14,944.58 -1802.14,1912.2 0,967.62 634.85,1912.21 1802.14,1912.21 532.44,0 982.98,-207.35 1290.16,-529.89 61.43,-69.12 163.83,-80.64 225.26,-23.04l286.71 172.79c81.91,69.12 102.39,207.35 20.47,287.98 -450.53,472.29 -1085.37,748.76 -1822.6,748.76 -1474.48,0 -2539.37,-1117.37 -2539.37,-2568.81 0,-1462.95 1064.89,-2580.32 2539.37,-2580.32 737.23,0 1372.07,276.46 1822.6,748.75 81.92,80.64 61.44,230.39 -20.47,287.99zm3890.96 4031.75l-286.7 0c-102.4,0 -184.31,-92.15 -184.31,-195.83l0 -311.02c-266.23,334.06 -675.8,587.49 -1310.64,587.49 -1126.33,0 -1781.65,-944.58 -1781.65,-1877.65 0,-944.58 655.32,-1900.68 1781.65,-1900.68 634.84,0 1044.41,264.94 1310.64,599l0 -322.54c0,-103.68 81.91,-184.31 184.31,-184.31l286.7 0c102.39,0 184.31,80.63 184.31,184.31l0 3225.4c0,103.68 -81.92,195.83 -184.31,195.83zm-1720.22 -3075.65c-737.23,0 -1187.76,541.41 -1187.76,1278.64 0,725.72 450.53,1267.13 1187.76,1267.13 798.68,0 1249.21,-564.45 1249.21,-1267.13 0,-725.72 -450.53,-1278.64 -1249.21,-1278.64zm368.62 -1186.49c-40.96,57.6 -102.39,80.63 -163.83,80.63l-225.26 0c-61.44,0 -102.4,-69.11 -81.92,-126.71l327.66 -725.71c40.96,-80.64 143.35,-138.24 225.27,-138.24l307.18 0c102.39,0 163.83,115.2 102.39,195.83l-491.49 714.2zm3542.83 2165.63c880.58,184.31 1187.77,460.77 1187.77,1013.7 0,633.56 -471.02,1163.45 -1413.04,1163.45 -634.84,0 -1146.81,-207.35 -1372.08,-610.52 -61.43,-103.68 0,-230.39 102.4,-264.95l286.7 -103.67c81.92,-23.04 163.83,11.52 225.27,80.63 81.91,149.75 307.18,311.02 757.71,311.02 471.01,0 737.24,-195.82 737.24,-506.85 0,-426.21 -593.89,-426.21 -1105.86,-541.4 -675.8,-149.75 -962.5,-483.81 -962.5,-1002.18 0,-668.12 532.45,-1140.41 1331.12,-1140.41 491.49,0 942.02,230.38 1146.81,622.04 61.44,103.67 0,241.9 -122.87,264.94l-245.75 69.12c-81.91,23.04 -163.83,0 -204.78,-80.64 -102.4,-149.75 -307.19,-299.5 -634.85,-299.5 -348.13,0 -614.36,207.35 -614.36,506.85 0,403.18 491.49,437.73 901.07,518.37zm2948.94 0c880.59,184.31 1167.29,460.77 1167.29,1013.7 0,633.56 -450.53,1163.45 -1413.04,1163.45 -614.36,0 -1146.81,-207.35 -1372.07,-610.52 -61.44,-103.68 0,-230.39 102.39,-264.95l286.7 -103.67c81.92,-23.04 184.31,11.52 225.27,80.63 102.39,149.75 327.66,311.02 778.19,311.02 471.01,0 737.24,-195.82 737.24,-506.85 0,-426.21 -614.37,-426.21 -1126.33,-541.4 -655.32,-149.75 -962.51,-483.81 -962.51,-1002.18 0,-668.12 552.93,-1140.41 1331.12,-1140.41 511.97,0 962.51,230.38 1146.81,622.04 61.44,103.67 0,241.9 -102.39,264.94l-266.22 69.12c-81.92,23.04 -163.83,0 -204.79,-80.64 -102.4,-149.75 -307.18,-299.5 -634.84,-299.5 -348.14,0 -614.37,207.35 -614.37,506.85 0,403.18 491.49,437.73 921.55,518.37zm1884.04 -2154.11c-204.78,0 -368.61,-161.27 -368.61,-368.62 0,-207.35 163.83,-368.62 368.61,-368.62 204.79,0 368.62,161.27 368.62,368.62 0,207.35 -163.83,368.62 -368.62,368.62zm-122.87 645.08l266.23 0c102.39,0 184.3,80.63 184.3,184.31l0 3225.4c0,103.68 -81.91,195.83 -184.3,195.83l-266.23 0c-122.87,0 -204.79,-92.15 -204.79,-195.83l0 -3225.4c0,-103.68 81.92,-184.31 204.79,-184.31zm2764.63 3697.7c-1085.37,0 -1884.04,-852.43 -1884.04,-1889.17 0,-1036.74 798.67,-1900.68 1884.04,-1900.68 1085.38,0 1884.05,863.94 1884.05,1900.68 0,1036.74 -798.67,1889.17 -1884.05,1889.17zm0 -3167.81c-716.75,0 -1228.72,529.89 -1228.72,1278.64 0,725.72 511.97,1267.13 1228.72,1267.13 716.76,0 1228.73,-541.41 1228.73,-1267.13 0,-748.75 -511.97,-1278.64 -1228.73,-1278.64zm-14396.56 11035.5l-1351.6 0c-245.75,0 -450.53,-207.35 -450.53,-460.78l0 -4169.99 -696.28 483.81c-163.83,115.2 -389.1,57.6 -511.97,-103.67l-532.45 -875.47c-81.91,-172.79 -40.96,-380.13 102.4,-483.81l1965.96 -1301.68c81.91,-69.12 184.31,-92.15 286.7,-92.15l1187.77 0c266.22,0 450.53,195.82 450.53,437.73l0 6105.23c0,253.43 -184.31,460.78 -450.53,460.78zm5467.83 -3640.11c716.75,287.99 1167.28,817.87 1167.28,1658.78 0,1439.92 -1167.28,2096.52 -2826.06,2096.52 -1331.12,0 -2457.46,-564.45 -2846.55,-1566.63 -81.92,-207.34 40.96,-426.21 245.74,-472.29l1679.26 -357.1c122.87,-34.56 245.75,34.56 307.18,149.75 81.92,172.79 266.23,299.51 532.45,299.51 348.14,0 511.97,-207.35 511.97,-506.85 0,-241.91 -163.83,-414.7 -511.97,-414.7l-593.88 0c-143.35,0 -266.23,-126.71 -266.23,-276.46l0 -1140.41c0,-149.76 122.88,-264.95 266.23,-264.95l593.88 0c286.7,0 511.97,-115.19 511.97,-403.17 0,-276.47 -225.27,-426.22 -511.97,-426.22 -204.79,0 -368.62,103.68 -430.05,253.43 -61.44,115.19 -184.31,172.79 -307.18,149.75l-1515.43 -345.58c-225.27,-46.08 -327.66,-264.95 -266.23,-472.29 348.14,-898.51 1249.21,-1451.44 2600.81,-1451.44 1658.78,0 2641.76,760.28 2641.76,2015.88 0,645.08 -348.14,1163.45 -982.98,1474.47zm4730.59 3640.11l-1351.6 0c-245.74,0 -430.05,-207.35 -430.05,-460.78l0 -4169.99 -716.76 483.81c-163.83,115.2 -389.1,57.6 -511.97,-103.67l-511.97 -875.47c-102.39,-172.79 -61.43,-380.13 81.92,-483.81l1965.96 -1301.68c81.91,-69.12 184.31,-92.15 286.7,-92.15l1187.77 0c266.22,0 450.53,195.82 450.53,437.73l0 6105.23c0,253.43 -184.31,460.78 -450.53,460.78zm6368.89 -1624.23l0 1163.45c0,253.43 -204.78,460.78 -430.05,460.78l-4300.54 0c-245.75,0 -430.05,-207.35 -430.05,-460.78l0 -679.64c0,-138.23 40.95,-264.94 143.35,-368.61 491.49,-472.3 1167.29,-1151.93 1761.17,-1808.54 552.93,-587.48 962.5,-990.66 962.5,-1232.56 0,-264.95 -143.35,-483.81 -471.01,-483.81 -266.22,0 -430.05,138.23 -491.49,322.54 -40.96,138.23 -163.83,207.35 -307.18,172.79l-1453.99 -322.54c-204.79,-46.08 -327.66,-241.91 -266.23,-449.26 327.66,-1140.41 1413.04,-1820.05 2682.72,-1820.05 1720.22,0 2559.85,1048.26 2559.85,2269.31 0,910.02 -532.45,1509.03 -1802.14,2799.19l1413.04 0c225.27,0 430.05,195.83 430.05,437.73zm4669.16 -2015.88c716.76,287.99 1167.29,817.87 1167.29,1658.78 0,1439.92 -1167.29,2096.52 -2826.07,2096.52 -1331.12,0 -2477.93,-564.45 -2846.55,-1566.63 -81.91,-207.34 40.96,-426.21 245.75,-472.29l1679.26 -357.1c122.87,-34.56 245.74,34.56 307.18,149.75 81.91,172.79 266.22,299.51 532.45,299.51 348.13,0 511.96,-207.35 511.96,-506.85 0,-241.91 -163.83,-414.7 -511.96,-414.7l-593.89 0c-143.35,0 -266.22,-126.71 -266.22,-276.46l0 -1140.41c0,-149.76 122.87,-264.95 266.22,-264.95l593.89 0c286.7,0 511.96,-115.19 511.96,-403.17 0,-276.47 -225.26,-426.22 -511.96,-426.22 -225.27,0 -368.62,103.68 -450.54,253.43 -61.43,115.19 -184.31,172.79 -307.18,149.75l-1515.43 -345.58c-204.78,-46.08 -327.66,-264.95 -245.74,-472.29 327.66,-898.51 1249.2,-1451.44 2600.8,-1451.44 1658.78,0 2641.76,760.28 2641.76,2015.88 0,645.08 -368.62,1163.45 -982.98,1474.47z"/>
  <path class="fil1" d="M3023.38 1861.89c143.35,0 245.75,115.19 245.75,253.42l0 4469.5c0,138.23 -102.4,253.42 -245.75,253.42l-716.75 0c-143.35,0 -245.75,-115.19 -245.75,-253.42l0 -4469.5c0,-138.23 102.4,-253.42 245.75,-253.42l716.75 0zm3972.88 2257.78l-675.8 403.18c-81.91,46.08 -184.31,23.04 -245.74,-34.56 -122.87,-138.23 -327.66,-218.87 -552.93,-218.87 -450.53,0 -757.71,345.58 -757.71,771.8 0,414.69 307.18,771.79 757.71,771.79 225.27,0 430.06,-92.15 552.93,-218.87 61.43,-69.11 163.83,-80.63 245.74,-34.55l675.8 403.17c102.4,57.6 122.88,195.83 40.96,276.47 -348.14,426.21 -880.59,691.15 -1515.43,691.15 -1126.33,0 -1925,-817.87 -1925,-1889.16 0,-1071.3 798.67,-1889.17 1925,-1889.17 634.84,0 1167.29,264.95 1515.43,679.64 81.92,92.16 61.44,218.87 -40.96,287.98zm3706.66 2718.56l-696.28 0c-122.87,0 -204.79,-80.63 -204.79,-184.31l0 -172.79c-204.79,264.95 -532.45,449.25 -1023.94,449.25 -1105.85,0 -1720.21,-944.58 -1720.21,-1889.16 0,-944.59 614.36,-1889.17 1720.21,-1889.17 491.49,0 819.15,172.79 1023.94,437.74l0 -161.28c0,-103.67 81.92,-195.82 204.79,-195.82l696.28 0c143.35,0 266.22,115.19 266.22,253.42l0 3098.7c0,138.23 -122.87,253.42 -266.22,253.42zm-1699.74 -2568.81c-491.49,0 -778.19,322.55 -778.19,771.8 0,437.73 286.7,771.79 778.19,771.79 430.05,0 757.71,-299.5 757.71,-771.79 0,-483.81 -327.66,-771.8 -757.71,-771.8zm4546.29 92.16c-839.63,-57.6 -942.03,483.81 -942.03,1059.78l0 1163.45c0,138.23 -102.39,253.42 -245.74,253.42l-655.32 0c-122.88,0 -245.75,-115.19 -245.75,-253.42l0 -3098.7c0,-138.23 122.87,-253.42 245.75,-253.42l655.32 0c143.35,0 245.74,115.19 245.74,253.42l0 299.5c225.27,-334.06 573.41,-552.92 921.55,-610.52 122.87,-23.04 225.26,57.6 225.26,184.31l0 817.87c0,115.19 -102.39,195.83 -204.78,184.31zm2129.79 2568.8c-1126.34,0 -1925.01,-817.87 -1925.01,-1889.16 0,-1071.3 798.67,-1889.17 1925.01,-1889.17 1146.81,0 1945.48,817.87 1945.48,1889.17 0,1071.29 -798.67,1889.16 -1945.48,1889.16zm0 -2660.96c-450.54,0 -757.72,357.1 -757.72,771.8 0,414.69 307.18,771.79 757.72,771.79 471.01,0 778.19,-357.1 778.19,-771.79 0,-414.7 -307.18,-771.8 -778.19,-771.8zm-9399.75 4319.75l-286.71 184.3c-61.43,46.08 -163.83,34.56 -225.26,-34.55 -307.18,-311.03 -757.72,-518.37 -1290.16,-518.37 -1167.29,0 -1802.14,944.58 -1802.14,1912.2 0,967.62 634.85,1912.21 1802.14,1912.21 532.44,0 982.98,-207.35 1290.16,-529.89 61.43,-69.12 163.83,-80.64 225.26,-23.04l286.71 172.79c81.91,69.12 102.39,207.35 20.47,287.98 -450.53,472.29 -1085.37,748.76 -1822.6,748.76 -1474.48,0 -2539.37,-1117.37 -2539.37,-2568.81 0,-1462.95 1064.89,-2580.32 2539.37,-2580.32 737.23,0 1372.07,276.46 1822.6,748.75 81.92,80.64 61.44,230.39 -20.47,287.99zm3890.96 4031.75l-286.7 0c-102.4,0 -184.31,-92.15 -184.31,-195.83l0 -311.02c-266.23,334.06 -675.8,587.49 -1310.64,587.49 -1126.33,0 -1781.65,-944.58 -1781.65,-1877.65 0,-944.58 655.32,-1900.68 1781.65,-1900.68 634.84,0 1044.41,264.94 1310.64,599l0 -322.54c0,-103.68 81.91,-184.31 184.31,-184.31l286.7 0c102.39,0 184.31,80.63 184.31,184.31l0 3225.4c0,103.68 -81.92,195.83 -184.31,195.83zm-1720.22 -3075.65c-737.23,0 -1187.76,541.41 -1187.76,1278.64 0,725.72 450.53,1267.13 1187.76,1267.13 798.68,0 1249.21,-564.45 1249.21,-1267.13 0,-725.72 -450.53,-1278.64 -1249.21,-1278.64zm368.62 -1186.49c-40.96,57.6 -102.39,80.63 -163.83,80.63l-225.26 0c-61.44,0 -102.4,-69.11 -81.92,-126.71l327.66 -725.71c40.96,-80.64 143.35,-138.24 225.27,-138.24l307.18 0c102.39,0 163.83,115.2 102.39,195.83l-491.49 714.2zm3542.83 2165.63c880.58,184.31 1187.77,460.77 1187.77,1013.7 0,633.56 -471.02,1163.45 -1413.04,1163.45 -634.84,0 -1146.81,-207.35 -1372.08,-610.52 -61.43,-103.68 0,-230.39 102.4,-264.95l286.7 -103.67c81.92,-23.04 163.83,11.52 225.27,80.63 81.91,149.75 307.18,311.02 757.71,311.02 471.01,0 737.24,-195.82 737.24,-506.85 0,-426.21 -593.89,-426.21 -1105.86,-541.4 -675.8,-149.75 -962.5,-483.81 -962.5,-1002.18 0,-668.12 532.45,-1140.41 1331.12,-1140.41 491.49,0 942.02,230.38 1146.81,622.04 61.44,103.67 0,241.9 -122.87,264.94l-245.75 69.12c-81.91,23.04 -163.83,0 -204.78,-80.64 -102.4,-149.75 -307.19,-299.5 -634.85,-299.5 -348.13,0 -614.36,207.35 -614.36,506.85 0,403.18 491.49,437.73 901.07,518.37zm2948.94 0c880.59,184.31 1167.29,460.77 1167.29,1013.7 0,633.56 -450.53,1163.45 -1413.04,1163.45 -614.36,0 -1146.81,-207.35 -1372.07,-610.52 -61.44,-103.68 0,-230.39 102.39,-264.95l286.7 -103.67c81.92,-23.04 184.31,11.52 225.27,80.63 102.39,149.75 327.66,311.02 778.19,311.02 471.01,0 737.24,-195.82 737.24,-506.85 0,-426.21 -614.37,-426.21 -1126.33,-541.4 -655.32,-149.75 -962.51,-483.81 -962.51,-1002.18 0,-668.12 552.93,-1140.41 1331.12,-1140.41 511.97,0 962.51,230.38 1146.81,622.04 61.44,103.67 0,241.9 -102.39,264.94l-266.22 69.12c-81.92,23.04 -163.83,0 -204.79,-80.64 -102.4,-149.75 -307.18,-299.5 -634.84,-299.5 -348.14,0 -614.37,207.35 -614.37,506.85 0,403.18 491.49,437.73 921.55,518.37zm1884.04 -2154.11c-204.78,0 -368.61,-161.27 -368.61,-368.62 0,-207.35 163.83,-368.62 368.61,-368.62 204.79,0 368.62,161.27 368.62,368.62 0,207.35 -163.83,368.62 -368.62,368.62zm-122.87 645.08l266.23 0c102.39,0 184.3,80.63 184.3,184.31l0 3225.4c0,103.68 -81.91,195.83 -184.3,195.83l-266.23 0c-122.87,0 -204.79,-92.15 -204.79,-195.83l0 -3225.4c0,-103.68 81.92,-184.31 204.79,-184.31zm2764.63 3697.7c-1085.37,0 -1884.04,-852.43 -1884.04,-1889.17 0,-1036.74 798.67,-1900.68 1884.04,-1900.68 1085.38,0 1884.05,863.94 1884.05,1900.68 0,1036.74 -798.67,1889.17 -1884.05,1889.17zm0 -3167.81c-716.75,0 -1228.72,529.89 -1228.72,1278.64 0,725.72 511.97,1267.13 1228.72,1267.13 716.76,0 1228.73,-541.41 1228.73,-1267.13 0,-748.75 -511.97,-1278.64 -1228.73,-1278.64z"/>
  <path class="fil2" d="M3617.27 514.13l-471.01 668.12c-40.96,80.63 -143.36,138.23 -245.75,138.23l-552.93 0c-102.39,0 -163.83,-103.67 -122.87,-184.31l307.18 -633.56c40.96,-115.19 163.83,-184.31 266.23,-184.31l716.75 0c102.4,0 163.83,115.19 102.4,195.83z"/>
  <g id="_1571045925088">
   <path class="fil0" d="M5050.78 1366.56l-286.7 829.39c-20.48,23.04 -40.96,46.08 -61.44,46.08l-143.35 0c-20.48,0 -40.96,-23.04 -40.96,-46.08l-307.18 -829.39c0,-23.04 0,-46.08 40.96,-46.08l81.91 0c40.96,0 61.44,11.52 61.44,34.56l245.75 702.68 225.26 -702.68c20.48,-23.04 40.96,-34.56 61.44,-34.56l102.39 0c20.48,0 40.96,23.04 20.48,46.08zm1392.56 599l-450.54 0c20.48,92.16 102.4,138.23 184.31,138.23 61.44,0 102.4,-23.03 122.87,-46.07 20.48,-11.52 40.96,-11.52 40.96,0l81.92 46.07c20.48,11.52 20.48,34.56 0,46.08 -40.96,57.6 -143.35,103.68 -245.75,103.68 -225.26,0 -368.62,-149.76 -368.62,-345.58 0,-207.35 163.83,-357.1 348.14,-357.1 184.31,0 348.14,138.23 327.66,368.62 0,34.55 -20.48,46.07 -40.95,46.07zm-286.71 -264.94c-81.91,0 -143.35,57.6 -163.83,138.23l327.66 0c-20.48,-92.15 -81.91,-138.23 -163.83,-138.23zm1576.87 34.56c-163.83,-11.52 -184.31,115.19 -184.31,230.38l0 230.39c0,23.04 -40.96,46.08 -61.44,46.08l-61.43 0c-40.96,0 -61.44,-23.04 -61.44,-46.08l0 -575.97c0,-23.04 20.48,-46.07 61.44,-46.07l61.43 0c20.48,0 61.44,23.03 61.44,46.07l0 57.6c40.96,-69.12 102.39,-103.67 163.83,-115.19 20.48,-11.52 40.96,11.52 40.96,34.55l0 103.68c0,23.04 0,34.56 -20.48,34.56zm1494.95 230.38l-450.54 0c20.48,92.16 81.92,138.23 184.31,138.23 61.44,0 102.4,-23.03 122.88,-46.07 20.47,-11.52 40.95,-11.52 40.95,0l81.92 46.07c20.48,11.52 20.48,34.56 0,46.08 -40.96,57.6 -143.35,103.68 -245.75,103.68 -225.26,0 -368.61,-149.76 -368.61,-345.58 0,-207.35 163.83,-357.1 348.13,-357.1 184.31,0 327.66,138.23 327.66,368.62 0,34.55 -20.47,46.07 -40.95,46.07zm-286.71 -264.94c-81.91,0 -143.35,57.6 -163.83,138.23l327.66 0c-20.47,-92.15 -81.91,-138.23 -163.83,-138.23zm1843.09 541.41l-81.91 0c-20.48,0 -40.96,-23.04 -40.96,-46.08l0 -34.56c-40.96,57.6 -122.87,92.16 -225.27,92.16 -204.78,0 -327.66,-172.79 -327.66,-345.58 0,-172.79 122.88,-357.1 327.66,-357.1 102.4,0 184.31,46.07 225.27,103.67l0 -34.56c0,-23.04 20.48,-46.07 40.96,-46.07l81.91 0c20.48,0 40.96,23.03 40.96,46.07l0 575.97c0,23.04 -20.48,46.08 -40.96,46.08zm-327.66 -529.89c-102.39,0 -163.83,92.15 -163.83,195.83 0,103.67 61.44,184.31 163.83,184.31 122.88,0 184.31,-80.64 184.31,-184.31 0,-103.68 -61.43,-195.83 -184.31,-195.83zm1904.53 529.89l-61.44 0c-40.96,0 -61.44,-23.04 -61.44,-46.08l0 -34.56c-40.95,57.6 -102.39,92.16 -204.78,92.16 -204.79,0 -327.66,-172.79 -327.66,-345.58 0,-172.79 122.87,-357.1 327.66,-357.1 102.39,0 163.83,46.07 204.78,103.67l0 -287.98c0,-34.56 20.48,-46.08 61.44,-46.08l61.44 0c20.48,0 40.95,11.52 40.95,46.08l0 829.39c0,23.04 -20.47,46.08 -40.95,46.08zm-307.18 -529.89c-102.4,0 -184.31,92.15 -184.31,195.83 0,103.67 81.91,184.31 184.31,184.31 122.87,0 184.3,-80.64 184.3,-184.31 0,-103.68 -61.43,-195.83 -184.3,-195.83zm1597.34 541.41c-204.79,0 -348.14,-149.76 -348.14,-345.58 0,-195.83 143.35,-357.1 348.14,-357.1 204.79,0 348.14,161.27 348.14,357.1 0,195.82 -143.35,345.58 -348.14,345.58zm0 -541.41c-122.87,0 -184.31,92.15 -184.31,195.83 0,103.67 61.44,184.31 184.31,184.31 102.39,0 184.31,-80.64 184.31,-184.31 0,-103.68 -81.92,-195.83 -184.31,-195.83zm1597.34 23.04c-163.83,-11.52 -204.79,115.19 -204.79,230.38l0 230.39c0,23.04 -20.47,46.08 -40.95,46.08l-61.44 0c-40.96,0 -61.44,-23.04 -61.44,-46.08l0 -575.97c0,-23.04 20.48,-46.07 61.44,-46.07l61.44 0c20.48,0 40.95,23.03 40.95,46.07l0 57.6c40.96,-69.12 122.88,-103.67 184.31,-115.19 20.48,-11.52 40.96,11.52 40.96,34.55l0 103.68c0,23.04 0,34.56 -20.48,34.56z"/>
   <path class="fil1" d="M5050.78 1366.56l-286.7 829.39c-20.48,23.04 -40.96,46.08 -61.44,46.08l-143.35 0c-20.48,0 -40.96,-23.04 -40.96,-46.08l-307.18 -829.39c0,-23.04 0,-46.08 40.96,-46.08l81.91 0c40.96,0 61.44,11.52 61.44,34.56l245.75 702.68 225.26 -702.68c20.48,-23.04 40.96,-34.56 61.44,-34.56l102.39 0c20.48,0 40.96,23.04 20.48,46.08zm1392.56 599l-450.54 0c20.48,92.16 102.4,138.23 184.31,138.23 61.44,0 102.4,-23.03 122.87,-46.07 20.48,-11.52 40.96,-11.52 40.96,0l81.92 46.07c20.48,11.52 20.48,34.56 0,46.08 -40.96,57.6 -143.35,103.68 -245.75,103.68 -225.26,0 -368.62,-149.76 -368.62,-345.58 0,-207.35 163.83,-357.1 348.14,-357.1 184.31,0 348.14,138.23 327.66,368.62 0,34.55 -20.48,46.07 -40.95,46.07zm-286.71 -264.94c-81.91,0 -143.35,57.6 -163.83,138.23l327.66 0c-20.48,-92.15 -81.91,-138.23 -163.83,-138.23zm1576.87 34.56c-163.83,-11.52 -184.31,115.19 -184.31,230.38l0 230.39c0,23.04 -40.96,46.08 -61.44,46.08l-61.43 0c-40.96,0 -61.44,-23.04 -61.44,-46.08l0 -575.97c0,-23.04 20.48,-46.07 61.44,-46.07l61.43 0c20.48,0 61.44,23.03 61.44,46.07l0 57.6c40.96,-69.12 102.39,-103.67 163.83,-115.19 20.48,-11.52 40.96,11.52 40.96,34.55l0 103.68c0,23.04 0,34.56 -20.48,34.56zm1494.95 230.38l-450.54 0c20.48,92.16 81.92,138.23 184.31,138.23 61.44,0 102.4,-23.03 122.88,-46.07 20.47,-11.52 40.95,-11.52 40.95,0l81.92 46.07c20.48,11.52 20.48,34.56 0,46.08 -40.96,57.6 -143.35,103.68 -245.75,103.68 -225.26,0 -368.61,-149.76 -368.61,-345.58 0,-207.35 163.83,-357.1 348.13,-357.1 184.31,0 327.66,138.23 327.66,368.62 0,34.55 -20.47,46.07 -40.95,46.07zm-286.71 -264.94c-81.91,0 -143.35,57.6 -163.83,138.23l327.66 0c-20.47,-92.15 -81.91,-138.23 -163.83,-138.23zm1843.09 541.41l-81.91 0c-20.48,0 -40.96,-23.04 -40.96,-46.08l0 -34.56c-40.96,57.6 -122.87,92.16 -225.27,92.16 -204.78,0 -327.66,-172.79 -327.66,-345.58 0,-172.79 122.88,-357.1 327.66,-357.1 102.4,0 184.31,46.07 225.27,103.67l0 -34.56c0,-23.04 20.48,-46.07 40.96,-46.07l81.91 0c20.48,0 40.96,23.03 40.96,46.07l0 575.97c0,23.04 -20.48,46.08 -40.96,46.08zm-327.66 -529.89c-102.39,0 -163.83,92.15 -163.83,195.83 0,103.67 61.44,184.31 163.83,184.31 122.88,0 184.31,-80.64 184.31,-184.31 0,-103.68 -61.43,-195.83 -184.31,-195.83zm1904.53 529.89l-61.44 0c-40.96,0 -61.44,-23.04 -61.44,-46.08l0 -34.56c-40.95,57.6 -102.39,92.16 -204.78,92.16 -204.79,0 -327.66,-172.79 -327.66,-345.58 0,-172.79 122.87,-357.1 327.66,-357.1 102.39,0 163.83,46.07 204.78,103.67l0 -287.98c0,-34.56 20.48,-46.08 61.44,-46.08l61.44 0c20.48,0 40.95,11.52 40.95,46.08l0 829.39c0,23.04 -20.47,46.08 -40.95,46.08zm-307.18 -529.89c-102.4,0 -184.31,92.15 -184.31,195.83 0,103.67 81.91,184.31 184.31,184.31 122.87,0 184.3,-80.64 184.3,-184.31 0,-103.68 -61.43,-195.83 -184.3,-195.83zm1597.34 541.41c-204.79,0 -348.14,-149.76 -348.14,-345.58 0,-195.83 143.35,-357.1 348.14,-357.1 204.79,0 348.14,161.27 348.14,357.1 0,195.82 -143.35,345.58 -348.14,345.58zm0 -541.41c-122.87,0 -184.31,92.15 -184.31,195.83 0,103.67 61.44,184.31 184.31,184.31 102.39,0 184.31,-80.64 184.31,-184.31 0,-103.68 -81.92,-195.83 -184.31,-195.83zm1597.34 23.04c-163.83,-11.52 -204.79,115.19 -204.79,230.38l0 230.39c0,23.04 -20.47,46.08 -40.95,46.08l-61.44 0c-40.96,0 -61.44,-23.04 -61.44,-46.08l0 -575.97c0,-23.04 20.48,-46.07 61.44,-46.07l61.44 0c20.48,0 40.95,23.03 40.95,46.07l0 57.6c40.96,-69.12 122.88,-103.67 184.31,-115.19 20.48,-11.52 40.96,11.52 40.96,34.55l0 103.68c0,23.04 0,34.56 -20.48,34.56z"/>
  </g>
  <path class="fil2" d="M5439.88 20580.77l-1351.6 0c-245.75,0 -450.53,-207.35 -450.53,-460.78l0 -4169.99 -696.28 483.81c-163.83,115.2 -389.1,57.6 -511.97,-103.67l-532.45 -875.47c-81.91,-172.79 -40.96,-380.13 102.4,-483.81l1965.96 -1301.68c81.91,-69.12 184.31,-92.15 286.7,-92.15l1187.77 0c266.22,0 450.53,195.82 450.53,437.73l0 6105.23c0,253.43 -184.31,460.78 -450.53,460.78zm5467.83 -3640.11c716.75,287.99 1167.28,817.87 1167.28,1658.78 0,1439.92 -1167.28,2096.52 -2826.06,2096.52 -1331.12,0 -2457.46,-564.45 -2846.55,-1566.63 -81.92,-207.34 40.96,-426.21 245.74,-472.29l1679.26 -357.1c122.87,-34.56 245.75,34.56 307.18,149.75 81.92,172.79 266.23,299.51 532.45,299.51 348.14,0 511.97,-207.35 511.97,-506.85 0,-241.91 -163.83,-414.7 -511.97,-414.7l-593.88 0c-143.35,0 -266.23,-126.71 -266.23,-276.46l0 -1140.41c0,-149.76 122.88,-264.95 266.23,-264.95l593.88 0c286.7,0 511.97,-115.19 511.97,-403.17 0,-276.47 -225.27,-426.22 -511.97,-426.22 -204.79,0 -368.62,103.68 -430.05,253.43 -61.44,115.19 -184.31,172.79 -307.18,149.75l-1515.43 -345.58c-225.27,-46.08 -327.66,-264.95 -266.23,-472.29 348.14,-898.51 1249.21,-1451.44 2600.81,-1451.44 1658.78,0 2641.76,760.28 2641.76,2015.88 0,645.08 -348.14,1163.45 -982.98,1474.47zm4730.59 3640.11l-1351.6 0c-245.74,0 -430.05,-207.35 -430.05,-460.78l0 -4169.99 -716.76 483.81c-163.83,115.2 -389.1,57.6 -511.97,-103.67l-511.97 -875.47c-102.39,-172.79 -61.43,-380.13 81.92,-483.81l1965.96 -1301.68c81.91,-69.12 184.31,-92.15 286.7,-92.15l1187.77 0c266.22,0 450.53,195.82 450.53,437.73l0 6105.23c0,253.43 -184.31,460.78 -450.53,460.78zm6368.89 -1624.23l0 1163.45c0,253.43 -204.78,460.78 -430.05,460.78l-4300.54 0c-245.75,0 -430.05,-207.35 -430.05,-460.78l0 -679.64c0,-138.23 40.95,-264.94 143.35,-368.61 491.49,-472.3 1167.29,-1151.93 1761.17,-1808.54 552.93,-587.48 962.5,-990.66 962.5,-1232.56 0,-264.95 -143.35,-483.81 -471.01,-483.81 -266.22,0 -430.05,138.23 -491.49,322.54 -40.96,138.23 -163.83,207.35 -307.18,172.79l-1453.99 -322.54c-204.79,-46.08 -327.66,-241.91 -266.23,-449.26 327.66,-1140.41 1413.04,-1820.05 2682.72,-1820.05 1720.22,0 2559.85,1048.26 2559.85,2269.31 0,910.02 -532.45,1509.03 -1802.14,2799.19l1413.04 0c225.27,0 430.05,195.83 430.05,437.73zm4669.16 -2015.88c716.76,287.99 1167.29,817.87 1167.29,1658.78 0,1439.92 -1167.29,2096.52 -2826.07,2096.52 -1331.12,0 -2477.93,-564.45 -2846.55,-1566.63 -81.91,-207.34 40.96,-426.21 245.75,-472.29l1679.26 -357.1c122.87,-34.56 245.74,34.56 307.18,149.75 81.91,172.79 266.22,299.51 532.45,299.51 348.13,0 511.96,-207.35 511.96,-506.85 0,-241.91 -163.83,-414.7 -511.96,-414.7l-593.89 0c-143.35,0 -266.22,-126.71 -266.22,-276.46l0 -1140.41c0,-149.76 122.87,-264.95 266.22,-264.95l593.89 0c286.7,0 511.96,-115.19 511.96,-403.17 0,-276.47 -225.26,-426.22 -511.96,-426.22 -225.27,0 -368.62,103.68 -450.54,253.43 -61.43,115.19 -184.31,172.79 -307.18,149.75l-1515.43 -345.58c-204.78,-46.08 -327.66,-264.95 -245.74,-472.29 327.66,-898.51 1249.2,-1451.44 2600.8,-1451.44 1658.78,0 2641.76,760.28 2641.76,2015.88 0,645.08 -368.62,1163.45 -982.98,1474.47z"/>
 </g>
</svg>
